<svg width="26" height="26" viewBox="0 0 26 26" fill="none" xmlns="http://www.w3.org/2000/svg">
<g id="icons/ic_shopping_cart">
<g id="shape">
<path d="M8.125 24.3749C9.02246 24.3749 9.75 23.6474 9.75 22.7499C9.75 21.8525 9.02246 21.1249 8.125 21.1249C7.22754 21.1249 6.5 21.8525 6.5 22.7499C6.5 23.6474 7.22754 24.3749 8.125 24.3749Z" fill="#FFD600"/>
<path d="M19.5 24.3749C20.3975 24.3749 21.125 23.6474 21.125 22.7499C21.125 21.8525 20.3975 21.1249 19.5 21.1249C18.6025 21.1249 17.875 21.8525 17.875 22.7499C17.875 23.6474 18.6025 24.3749 19.5 24.3749Z" fill="#FFD600"/>
<path d="M22.75 5.68742H4.72875L4.0625 2.27492C4.02451 2.08863 3.92241 1.92157 3.77395 1.8028C3.62549 1.68403 3.44008 1.62109 3.25 1.62492H0V3.24992H2.58375L5.6875 18.8499C5.72549 19.0362 5.82759 19.2033 5.97605 19.322C6.12451 19.4408 6.30992 19.5038 6.5 19.4999H21.125V17.8749H7.16625L6.5 14.6249H21.125C21.3128 14.6295 21.4964 14.5689 21.6446 14.4533C21.7927 14.3378 21.8962 14.1745 21.9375 13.9912L23.5625 6.67867C23.5897 6.55812 23.5891 6.43294 23.5606 6.31267C23.5322 6.19239 23.4767 6.08019 23.3983 5.98461C23.32 5.88903 23.2209 5.81257 23.1085 5.76107C22.9962 5.70958 22.8736 5.68438 22.75 5.68742ZM20.475 12.9999H6.19125L5.05375 7.31242H21.7344L20.475 12.9999Z" fill="#FFD600"/>
</g>
</g>
</svg>
