<svg width="64" height="64" viewBox="0 0 64 64" fill="none" xmlns="http://www.w3.org/2000/svg">
<g id="icons/ic_shopping_cart">
<g id="shape">
<path d="M20 59.9999C22.2091 59.9999 24 58.2091 24 55.9999C24 53.7908 22.2091 51.9999 20 51.9999C17.7909 51.9999 16 53.7908 16 55.9999C16 58.2091 17.7909 59.9999 20 59.9999Z" fill="#256CCB"/>
<path d="M48 59.9999C50.2091 59.9999 52 58.2091 52 55.9999C52 53.7908 50.2091 51.9999 48 51.9999C45.7909 51.9999 44 53.7908 44 55.9999C44 58.2091 45.7909 59.9999 48 59.9999Z" fill="#256CCB"/>
<path d="M56 13.9999H11.64L10 5.59992C9.9065 5.14137 9.65515 4.73012 9.28972 4.43777C8.92428 4.14542 8.46789 3.99048 8 3.99992H0V7.99992H6.36L14 46.3999C14.0935 46.8585 14.3448 47.2697 14.7103 47.5621C15.0757 47.8544 15.5321 48.0094 16 47.9999H52V43.9999H17.64L16 35.9999H52C52.4623 36.0112 52.9143 35.8619 53.2789 35.5775C53.6436 35.2931 53.8984 34.8911 54 34.4399L58 16.4399C58.067 16.1432 58.0655 15.835 57.9954 15.539C57.9254 15.2429 57.7888 14.9667 57.5959 14.7315C57.4031 14.4962 57.1591 14.308 56.8825 14.1812C56.606 14.0545 56.3041 13.9924 56 13.9999ZM50.4 31.9999H15.24L12.44 17.9999H53.5L50.4 31.9999Z" fill="#256CCB"/>
</g>
</g>
</svg>
