<svg width="65" height="64" viewBox="0 0 65 64" fill="none" xmlns="http://www.w3.org/2000/svg">
<g id="icons/ic_users_group">
<g id="shape">
<path d="M52.6665 28H48.6665V32H52.6665C54.2573 32.0017 55.7824 32.6344 56.9072 33.7593C58.0321 34.8841 58.6648 36.4092 58.6665 38V46H62.6665V38C62.6634 35.3488 61.6089 32.807 59.7342 30.9323C57.8595 29.0576 55.3177 28.0031 52.6665 28Z" fill="#256CCB"/>
<path d="M48.6665 8C49.8532 8 51.0132 8.35189 51.9999 9.01118C52.9866 9.67047 53.7557 10.6075 54.2098 11.7039C54.6639 12.8003 54.7827 14.0067 54.5512 15.1705C54.3197 16.3344 53.7483 17.4035 52.9091 18.2426C52.07 19.0818 51.0009 19.6532 49.837 19.8847C48.6732 20.1162 47.4668 19.9974 46.3704 19.5433C45.274 19.0892 44.337 18.3201 43.6777 17.3334C43.0184 16.3467 42.6665 15.1867 42.6665 14C42.6665 12.4087 43.2986 10.8826 44.4239 9.75736C45.5491 8.63214 47.0752 8 48.6665 8ZM48.6665 4C46.6887 4 44.7553 4.58649 43.1108 5.6853C41.4663 6.78412 40.1846 8.3459 39.4277 10.1732C38.6708 12.0004 38.4728 14.0111 38.8587 15.9509C39.2445 17.8907 40.1969 19.6725 41.5954 21.0711C42.994 22.4696 44.7758 23.422 46.7156 23.8079C48.6554 24.1937 50.6661 23.9957 52.4933 23.2388C54.3206 22.4819 55.8824 21.2002 56.9812 19.5557C58.08 17.9112 58.6665 15.9778 58.6665 14C58.6665 11.3478 57.6129 8.8043 55.7376 6.92893C53.8622 5.05357 51.3187 4 48.6665 4Z" fill="#256CCB"/>
<path d="M46.6665 60H42.6665V56C42.6648 54.4092 42.0321 52.8841 40.9072 51.7593C39.7824 50.6344 38.2573 50.0017 36.6665 50H28.6665C27.0757 50.0017 25.5506 50.6344 24.4258 51.7593C23.301 52.8841 22.6683 54.4092 22.6665 56V60H18.6665V56C18.6696 53.3488 19.7242 50.8071 21.5989 48.9324C23.4736 47.0577 26.0153 46.0031 28.6665 46H36.6665C39.3177 46.0031 41.8594 47.0577 43.7341 48.9324C45.6088 50.8071 46.6634 53.3488 46.6665 56V60Z" fill="#256CCB"/>
<path d="M32.6665 26C33.8532 26 35.0132 26.3519 35.9999 27.0112C36.9866 27.6705 37.7557 28.6075 38.2098 29.7039C38.6639 30.8003 38.7827 32.0067 38.5512 33.1705C38.3197 34.3344 37.7483 35.4035 36.9091 36.2426C36.07 37.0818 35.0009 37.6532 33.837 37.8847C32.6732 38.1162 31.4668 37.9974 30.3704 37.5433C29.274 37.0892 28.337 36.3201 27.6777 35.3334C27.0184 34.3467 26.6665 33.1867 26.6665 32C26.6665 30.4087 27.2986 28.8826 28.4239 27.7574C29.5491 26.6321 31.0752 26 32.6665 26ZM32.6665 22C30.6887 22 28.7553 22.5865 27.1108 23.6853C25.4663 24.7841 24.1846 26.3459 23.4277 28.1732C22.6708 30.0004 22.4728 32.0111 22.8586 33.9509C23.2445 35.8907 24.1969 37.6725 25.5954 39.0711C26.994 40.4696 28.7758 41.422 30.7156 41.8079C32.6554 42.1937 34.6661 41.9957 36.4933 41.2388C38.3206 40.4819 39.8824 39.2002 40.9812 37.5557C42.08 35.9112 42.6665 33.9778 42.6665 32C42.6665 29.3478 41.6129 26.8043 39.7376 24.9289C37.8622 23.0536 35.3187 22 32.6665 22Z" fill="#256CCB"/>
<path d="M16.6665 28H12.6665C10.0153 28.0031 7.47357 29.0577 5.59889 30.9324C3.7242 32.8071 2.66963 35.3488 2.6665 38V46H6.6665V38C6.66825 36.4092 7.30095 34.8841 8.42579 33.7593C9.55063 32.6344 11.0757 32.0017 12.6665 32H16.6665V28Z" fill="#256CCB"/>
<path d="M16.6665 8C17.8532 8 19.0132 8.35189 19.9999 9.01118C20.9866 9.67047 21.7557 10.6075 22.2098 11.7039C22.6639 12.8003 22.7827 14.0067 22.5512 15.1705C22.3197 16.3344 21.7483 17.4035 20.9091 18.2426C20.07 19.0818 19.0009 19.6532 17.837 19.8847C16.6732 20.1162 15.4668 19.9974 14.3704 19.5433C13.274 19.0892 12.337 18.3201 11.6777 17.3334C11.0184 16.3467 10.6665 15.1867 10.6665 14C10.6665 12.4087 11.2986 10.8826 12.4239 9.75736C13.5491 8.63214 15.0752 8 16.6665 8ZM16.6665 4C14.6887 4 12.7553 4.58649 11.1108 5.6853C9.46631 6.78412 8.18458 8.3459 7.42771 10.1732C6.67083 12.0004 6.4728 14.0111 6.85865 15.9509C7.2445 17.8907 8.19691 19.6725 9.59544 21.0711C10.994 22.4696 12.7758 23.422 14.7156 23.8079C16.6554 24.1937 18.6661 23.9957 20.4933 23.2388C22.3206 22.4819 23.8824 21.2002 24.9812 19.5557C26.08 17.9112 26.6665 15.9778 26.6665 14C26.6665 11.3478 25.6129 8.8043 23.7376 6.92893C21.8622 5.05357 19.3187 4 16.6665 4Z" fill="#256CCB"/>
</g>
</g>
</svg>
