<svg width="26" height="26" viewBox="0 0 26 26" fill="none" xmlns="http://www.w3.org/2000/svg">
<g id="icons/ic_star">
<path id="shape" fill-rule="evenodd" clip-rule="evenodd" d="M12.9924 1.08545C13.4047 1.08545 13.7813 1.31956 13.9638 1.68934L17.0548 7.95246L23.9659 8.95407C24.3742 9.01324 24.7135 9.2992 24.8409 9.6916C24.9683 10.084 24.8618 10.5147 24.5662 10.8025L19.558 15.6775L20.7388 22.5614C20.8086 22.968 20.6413 23.3789 20.3075 23.6213C19.9736 23.8636 19.531 23.8953 19.1661 23.7029L12.9994 20.4534L6.81774 23.7034C6.45275 23.8953 6.01045 23.8634 5.67683 23.621C5.34322 23.3786 5.17614 22.9678 5.24586 22.5614L6.42674 15.6775L1.41855 10.8025C1.12291 10.5147 1.01639 10.084 1.14382 9.6916C1.27125 9.2992 1.6105 9.01324 2.0188 8.95407L8.92989 7.95246L12.0209 1.68934C12.2034 1.31956 12.58 1.08545 12.9924 1.08545ZM12.9924 4.61665L10.6207 9.42231C10.4628 9.74218 10.1576 9.96384 9.80457 10.015L4.50488 10.7831L8.34649 14.5225C8.60219 14.7714 8.71892 15.1302 8.65859 15.4819L7.75249 20.7641L12.4958 18.2702C12.8117 18.1041 13.1892 18.1043 13.505 18.2707L18.2318 20.7615L17.3261 15.4819C17.2658 15.1302 17.3825 14.7714 17.6382 14.5225L21.4798 10.7831L16.1801 10.015C15.8271 9.96384 15.5219 9.74218 15.3641 9.42231L12.9924 4.61665Z" fill="#FFD600"/>
</g>
</svg>
