<svg width="26" height="26" viewBox="0 0 26 26" fill="none" xmlns="http://www.w3.org/2000/svg">
<g id="icons/ic_users_group">
<g id="shape">
<path d="M21.125 11.375H19.5V13H21.125C21.7712 13.0007 22.3908 13.2577 22.8478 13.7147C23.3048 14.1717 23.5618 14.7913 23.5625 15.4375V18.6875H25.1875V15.4375C25.1863 14.3604 24.7578 13.3279 23.9962 12.5663C23.2346 11.8047 22.2021 11.3762 21.125 11.375Z" fill="#FFD600"/>
<path d="M19.5 3.25C19.9821 3.25 20.4534 3.39296 20.8542 3.66079C21.255 3.92863 21.5675 4.30931 21.752 4.75471C21.9364 5.2001 21.9847 5.6902 21.8907 6.16303C21.7966 6.63586 21.5645 7.07018 21.2236 7.41107C20.8827 7.75196 20.4484 7.98411 19.9755 8.07816C19.5027 8.17222 19.0126 8.12395 18.5672 7.93946C18.1218 7.75497 17.7411 7.44255 17.4733 7.0417C17.2055 6.64086 17.0625 6.16959 17.0625 5.6875C17.0625 5.04103 17.3193 4.42105 17.7764 3.96393C18.2335 3.50681 18.8535 3.25 19.5 3.25ZM19.5 1.625C18.6965 1.625 17.9111 1.86326 17.243 2.30965C16.5749 2.75605 16.0542 3.39052 15.7467 4.13285C15.4393 4.87517 15.3588 5.69201 15.5156 6.48005C15.6723 7.2681 16.0592 7.99197 16.6274 8.56012C17.1955 9.12827 17.9194 9.51519 18.7074 9.67194C19.4955 9.82869 20.3123 9.74824 21.0547 9.44076C21.797 9.13328 22.4315 8.61258 22.8778 7.9445C23.3242 7.27643 23.5625 6.49099 23.5625 5.6875C23.5625 4.61006 23.1345 3.57675 22.3726 2.81488C21.6108 2.05301 20.5774 1.625 19.5 1.625Z" fill="#FFD600"/>
<path d="M18.6875 24.375H17.0625V22.75C17.0618 22.1038 16.8048 21.4842 16.3478 21.0272C15.8908 20.5702 15.2712 20.3132 14.625 20.3125H11.375C10.7288 20.3132 10.1092 20.5702 9.65221 21.0272C9.19524 21.4842 8.93821 22.1038 8.9375 22.75V24.375H7.3125V22.75C7.31377 21.6729 7.74219 20.6404 8.50378 19.8788C9.26537 19.1172 10.2979 18.6888 11.375 18.6875H14.625C15.7021 18.6888 16.7346 19.1172 17.4962 19.8788C18.2578 20.6404 18.6862 21.6729 18.6875 22.75V24.375Z" fill="#FFD600"/>
<path d="M13 10.5625C13.4821 10.5625 13.9534 10.7055 14.3542 10.9733C14.755 11.2411 15.0675 11.6218 15.252 12.0672C15.4364 12.5126 15.4847 13.0027 15.3907 13.4755C15.2966 13.9484 15.0645 14.3827 14.7236 14.7236C14.3827 15.0645 13.9484 15.2966 13.4755 15.3907C13.0027 15.4847 12.5126 15.4364 12.0672 15.252C11.6218 15.0675 11.2411 14.755 10.9733 14.3542C10.7055 13.9534 10.5625 13.4821 10.5625 13C10.5625 12.3535 10.8193 11.7335 11.2764 11.2764C11.7335 10.8193 12.3535 10.5625 13 10.5625ZM13 8.9375C12.1965 8.9375 11.4111 9.17576 10.743 9.62216C10.0749 10.0685 9.55422 10.703 9.24674 11.4453C8.93926 12.1877 8.85881 13.0045 9.01556 13.7926C9.17231 14.5806 9.55923 15.3045 10.1274 15.8726C10.6955 16.4408 11.4194 16.8277 12.2074 16.9844C12.9955 17.1412 13.8123 17.0607 14.5547 16.7533C15.297 16.4458 15.9315 15.9251 16.3778 15.257C16.8242 14.5889 17.0625 13.8035 17.0625 13C17.0625 11.9226 16.6345 10.8892 15.8726 10.1274C15.1108 9.36551 14.0774 8.9375 13 8.9375Z" fill="#FFD600"/>
<path d="M6.5 11.375H4.875C3.79795 11.3763 2.76537 11.8047 2.00378 12.5663C1.24219 13.3279 0.813769 14.3604 0.8125 15.4375V18.6875H2.4375V15.4375C2.43821 14.7913 2.69525 14.1717 3.15221 13.7147C3.60918 13.2577 4.22875 13.0007 4.875 13H6.5V11.375Z" fill="#FFD600"/>
<path d="M6.5 3.25C6.98209 3.25 7.45336 3.39296 7.8542 3.66079C8.25505 3.92863 8.56747 4.30931 8.75196 4.75471C8.93645 5.2001 8.98472 5.6902 8.89067 6.16303C8.79661 6.63586 8.56446 7.07018 8.22357 7.41107C7.88268 7.75196 7.44836 7.98411 6.97553 8.07816C6.5027 8.17222 6.0126 8.12395 5.56721 7.93946C5.12181 7.75497 4.74113 7.44255 4.47329 7.0417C4.20546 6.64086 4.0625 6.16959 4.0625 5.6875C4.0625 5.04103 4.31931 4.42105 4.77643 3.96393C5.23355 3.50681 5.85354 3.25 6.5 3.25ZM6.5 1.625C5.69651 1.625 4.91107 1.86326 4.243 2.30965C3.57492 2.75605 3.05422 3.39052 2.74674 4.13285C2.43926 4.87517 2.35881 5.69201 2.51556 6.48005C2.67231 7.2681 3.05923 7.99197 3.62738 8.56012C4.19553 9.12827 4.9194 9.51519 5.70745 9.67194C6.49549 9.82869 7.31233 9.74824 8.05465 9.44076C8.79698 9.13328 9.43145 8.61258 9.87784 7.9445C10.3242 7.27643 10.5625 6.49099 10.5625 5.6875C10.5625 4.61006 10.1345 3.57675 9.37262 2.81488C8.61075 2.05301 7.57744 1.625 6.5 1.625Z" fill="#FFD600"/>
</g>
</g>
</svg>
