<svg width="29" height="62" viewBox="0 0 29 62" fill="none" xmlns="http://www.w3.org/2000/svg">
<g id="Vector">
<path d="M14.4946 56.8758C10.718 56.8758 7.58467 55.9901 5.09446 54.2187C2.62074 52.4293 1.14476 49.7904 0.666504 46.3019L5.46552 45.9766C5.99324 48.1817 7.04869 49.8356 8.63187 50.9381C10.2151 52.0407 12.161 52.592 14.4698 52.592C15.8551 52.592 17.1497 52.3299 18.3536 51.8057C19.5739 51.2816 20.5552 50.5495 21.2973 49.6096C22.0559 48.6697 22.4352 47.5581 22.4352 46.2748C22.4352 44.5577 21.9652 43.184 21.0252 42.1537C20.1017 41.1235 18.6257 40.3101 16.5972 39.7136L10.4377 37.9513C7.78256 37.2102 5.6799 36.0444 4.12971 34.4538C2.57951 32.8632 1.79617 30.7304 1.77968 28.0553C1.76319 25.7959 2.29916 23.8077 3.38759 22.0906C4.49252 20.3734 6.00973 19.0359 7.93923 18.0779C9.88522 17.12 12.1281 16.641 14.6677 16.641C17.1085 16.641 19.2111 17.1561 20.9757 18.1864C22.7568 19.1986 24.1338 20.5452 25.1068 22.2261C26.0963 23.9071 26.624 25.7417 26.69 27.7299L22.0394 28.0011C21.6766 25.6694 20.8933 23.9071 19.6894 22.7142C18.502 21.5031 16.8281 20.8976 14.6677 20.8976C13.6453 20.8976 12.6558 21.0422 11.6993 21.3314C10.7593 21.6025 9.90996 22.0183 9.15135 22.5786C8.40924 23.1389 7.81555 23.8348 7.37028 24.6662C6.92501 25.4977 6.70237 26.4647 6.70237 27.5673C6.70237 28.9771 7.15589 30.0978 8.06292 30.9292C8.96995 31.7426 10.6026 32.5469 12.9609 33.3422L18.8978 35.1859C21.9322 36.1077 24.0926 37.5446 25.3789 39.4967C26.6818 41.4307 27.3332 43.672 27.3332 46.2206C27.3332 48.2992 26.7972 50.1428 25.7253 51.7515C24.6533 53.3421 23.1443 54.5983 21.1984 55.5201C19.2689 56.4239 17.0343 56.8758 14.4946 56.8758ZM12.5651 18.3184H16.7951L16.7951 18.2677H12.5651L12.5651 18.3184ZM12.2682 55.005H16.4983V62H12.2682V55.005Z" fill="#256CCB"/>
<path d="M14.6665 0L0.666504 14.7955L3.4945 17.7841L12.6665 8.091V18.3182H16.6665V8.091L25.8385 17.7841L28.6665 14.7955L14.6665 0Z" fill="#256CCB"/>
</g>
</svg>
