<svg width="25" height="26" viewBox="0 0 25 26" fill="none" xmlns="http://www.w3.org/2000/svg">
<g id="icon">
<g id="shape">
<path d="M4.6875 17.0625V16.25H3.125V17.0625C3.125 18.5709 3.70117 20.0176 4.72676 21.0842C5.75235 22.1508 7.14335 22.75 8.59375 22.75H10.9375V21.125H8.59375C7.55775 21.125 6.56418 20.697 5.83161 19.9351C5.09905 19.1733 4.6875 18.1399 4.6875 17.0625Z" fill="#FFD600"/>
<path d="M18.75 8.9375V9.75H20.3125V8.9375C20.3125 7.42908 19.7363 5.98245 18.7107 4.91583C17.6852 3.84922 16.2942 3.25 14.8437 3.25H12.5V4.875H14.8437C15.3567 4.875 15.8647 4.98008 16.3386 5.18424C16.8125 5.3884 17.2432 5.68764 17.6059 6.06488C17.9686 6.44212 18.2563 6.88997 18.4527 7.38285C18.649 7.87574 18.75 8.40401 18.75 8.9375Z" fill="#FFD600"/>
<path d="M8.59375 8.9375H3.90625C3.28465 8.9375 2.68851 9.19431 2.24897 9.65143C1.80943 10.1085 1.5625 10.7285 1.5625 11.375V13H3.125V11.375C3.125 11.1595 3.20731 10.9529 3.35382 10.8005C3.50034 10.6481 3.69905 10.5625 3.90625 10.5625H8.59375C8.80095 10.5625 8.99966 10.6481 9.14618 10.8005C9.29269 10.9529 9.375 11.1595 9.375 11.375V13H10.9375V11.375C10.9375 10.7285 10.6906 10.1085 10.251 9.65143C9.81149 9.19431 9.21535 8.9375 8.59375 8.9375Z" fill="#FFD600"/>
<path d="M6.25 8.125C6.86807 8.125 7.47225 7.93439 7.98616 7.57728C8.50006 7.22016 8.9006 6.71258 9.13712 6.11872C9.37365 5.52486 9.43553 4.8714 9.31495 4.24096C9.19438 3.61052 8.89675 3.03143 8.45971 2.5769C8.02267 2.12238 7.46585 1.81285 6.85966 1.68745C6.25347 1.56205 5.62513 1.62641 5.05411 1.87239C4.4831 2.11838 3.99504 2.53494 3.65166 3.0694C3.30828 3.60386 3.125 4.23221 3.125 4.875C3.125 5.73696 3.45424 6.56361 4.04029 7.1731C4.62634 7.78259 5.4212 8.125 6.25 8.125ZM6.25 3.25C6.55903 3.25 6.86113 3.34531 7.11808 3.52386C7.37503 3.70242 7.5753 3.95621 7.69356 4.25314C7.81182 4.55007 7.84277 4.8768 7.78248 5.19202C7.72219 5.50724 7.57337 5.79679 7.35485 6.02405C7.13633 6.25131 6.85792 6.40608 6.55483 6.46878C6.25173 6.53148 5.93757 6.4993 5.65206 6.37631C5.36655 6.25331 5.12252 6.04503 4.95083 5.7778C4.77914 5.51057 4.6875 5.1964 4.6875 4.875C4.6875 4.44403 4.85212 4.0307 5.14515 3.72595C5.43817 3.42121 5.8356 3.25 6.25 3.25Z" fill="#FFD600"/>
<path d="M21.0938 20.3125H16.4062C15.7846 20.3125 15.1885 20.5693 14.749 21.0264C14.3094 21.4836 14.0625 22.1035 14.0625 22.75V24.375H15.625V22.75C15.625 22.5345 15.7073 22.3279 15.8538 22.1755C16.0003 22.0231 16.199 21.9375 16.4062 21.9375H21.0938C21.3009 21.9375 21.4997 22.0231 21.6462 22.1755C21.7927 22.3279 21.875 22.5345 21.875 22.75V24.375H23.4375V22.75C23.4375 22.1035 23.1906 21.4836 22.751 21.0264C22.3115 20.5693 21.7154 20.3125 21.0938 20.3125Z" fill="#FFD600"/>
<path d="M15.625 16.25C15.625 16.8928 15.8083 17.5211 16.1517 18.0556C16.495 18.5901 16.9831 19.0066 17.5541 19.2526C18.1251 19.4986 18.7535 19.563 19.3597 19.4376C19.9658 19.3122 20.5227 19.0026 20.9597 18.5481C21.3967 18.0936 21.6944 17.5145 21.815 16.884C21.9355 16.2536 21.8736 15.6001 21.6371 15.0063C21.4006 14.4124 21.0001 13.9048 20.4862 13.5477C19.9723 13.1906 19.3681 13 18.75 13C17.9212 13 17.1263 13.3424 16.5403 13.9519C15.9542 14.5614 15.625 15.388 15.625 16.25ZM20.3125 16.25C20.3125 16.5714 20.2209 16.8856 20.0492 17.1528C19.8775 17.42 19.6335 17.6283 19.3479 17.7513C19.0624 17.8743 18.7483 17.9065 18.4452 17.8438C18.1421 17.7811 17.8637 17.6263 17.6451 17.3991C17.4266 17.1718 17.2778 16.8822 17.2175 16.567C17.1572 16.2518 17.1882 15.9251 17.3064 15.6281C17.4247 15.3312 17.625 15.0774 17.8819 14.8989C18.1389 14.7203 18.441 14.625 18.75 14.625C19.1644 14.625 19.5618 14.7962 19.8549 15.101C20.1479 15.4057 20.3125 15.819 20.3125 16.25Z" fill="#FFD600"/>
</g>
</g>
</svg>
