<svg width="12" height="26" viewBox="0 0 12 26" fill="none" xmlns="http://www.w3.org/2000/svg">
<g id="Vector">
<path d="M5.92632 23.8511C4.3078 23.8511 2.96493 23.4797 1.89769 22.7369C0.83753 21.9865 0.204965 20.8798 0 19.4169L2.05672 19.2805C2.28289 20.2052 2.73522 20.8988 3.41373 21.3612C4.09223 21.8235 4.92623 22.0547 5.91572 22.0547C6.50941 22.0547 7.06423 21.9448 7.58018 21.725C8.10319 21.5052 8.52372 21.1982 8.84177 20.804C9.16689 20.4099 9.32945 19.9437 9.32945 19.4056C9.32945 18.6855 9.12802 18.1094 8.72515 17.6774C8.32936 17.2453 7.69679 16.9042 6.82746 16.6541L4.18765 15.9151C3.04974 15.6043 2.1486 15.1154 1.48423 14.4484C0.819861 13.7814 0.484142 12.8869 0.477074 11.7651C0.470006 10.8176 0.699709 9.98387 1.16618 9.26379C1.63972 8.5437 2.28996 7.9828 3.11688 7.58107C3.95088 7.17934 4.91209 6.97847 6.00053 6.97847C7.04656 6.97847 7.9477 7.1945 8.70395 7.62655C9.46727 8.05102 10.0574 8.61571 10.4744 9.32063C10.8985 10.0256 11.1247 10.7949 11.1529 11.6287L9.15982 11.7424C9.00433 10.7646 8.66861 10.0256 8.15266 9.52529C7.64379 9.01744 6.92641 8.76352 6.00053 8.76352C5.56233 8.76352 5.13826 8.82416 4.72833 8.94543C4.32547 9.05913 3.96148 9.23347 3.63636 9.46844C3.31831 9.70341 3.06388 9.99524 2.87305 10.3439C2.68222 10.6926 2.5868 11.0981 2.5868 11.5605C2.5868 12.1517 2.78116 12.6216 3.16989 12.9703C3.55862 13.3114 4.25833 13.6487 5.26902 13.9822L7.81341 14.7554C9.11388 15.1419 10.0398 15.7445 10.591 16.5631C11.1494 17.3742 11.4286 18.3141 11.4286 19.3828C11.4286 20.2545 11.1989 21.0276 10.7395 21.7022C10.2801 22.3693 9.63336 22.8961 8.79937 23.2826C7.97244 23.6616 7.01475 23.8511 5.92632 23.8511ZM5.09939 7.68191H6.91227L6.91227 7.66066H5.09939L5.09939 7.68191ZM4.97217 23.0666H6.78505V26H4.97217V23.0666Z" fill="#FFD600"/>
<path d="M6 0L0 6.20455L1.212 7.45786L5.14286 3.393V7.68182H6.85714V3.393L10.788 7.45786L12 6.20455L6 0Z" fill="#FFD600"/>
</g>
</svg>
