<svg width="65" height="64" viewBox="0 0 65 64" fill="none" xmlns="http://www.w3.org/2000/svg">
<g id="icons/ic_cube_outline">
<path id="shape" d="M57.3408 16.2725L33.3408 2.27248C33.0349 2.09403 32.6871 2 32.333 2C31.9789 2 31.6311 2.09403 31.3252 2.27248L7.32521 16.2725C7.02327 16.4486 6.77278 16.7008 6.59869 17.0039C6.4246 17.3071 6.33299 17.6505 6.33301 18.0001V46.0001C6.33299 46.3496 6.4246 46.6931 6.59869 46.9962C6.77278 47.2993 7.02327 47.5515 7.32521 47.7277L31.3252 61.7277C31.6311 61.9061 31.9789 62.0002 32.333 62.0002C32.6871 62.0002 33.0349 61.9061 33.3408 61.7277L57.3408 47.7277C57.6427 47.5515 57.8932 47.2993 58.0673 46.9962C58.2414 46.6931 58.333 46.3496 58.333 46.0001V18.0001C58.333 17.6505 58.2414 17.3071 58.0673 17.0039C57.8932 16.7008 57.6427 16.4486 57.3408 16.2725ZM32.333 6.31548L52.3642 18.0001L32.333 29.6847L12.3018 18.0001L32.333 6.31548ZM10.333 21.4825L30.333 33.1485V56.5177L10.333 44.8517V21.4825ZM34.333 56.5177V33.1485L54.333 21.4825V44.8517L34.333 56.5177Z" fill="#256CCB"/>
</g>
</svg>
