<svg width="64" height="64" viewBox="0 0 64 64" fill="none" xmlns="http://www.w3.org/2000/svg">
<g id="icon">
<g id="shape">
<path d="M12.6455 42V40H8.70801V42C8.70801 45.713 10.16 49.274 12.7444 51.8995C15.3289 54.525 18.8342 56 22.4893 56H28.3955V52H22.4893C19.8785 52 17.3747 50.9464 15.5287 49.0711C13.6826 47.1957 12.6455 44.6522 12.6455 42Z" fill="#256CCB"/>
<path d="M48.083 22V24H52.0205V22C52.0205 18.287 50.5686 14.726 47.9841 12.1005C45.3996 9.475 41.8943 8 38.2393 8H32.333V12H38.2393C39.532 12 40.812 12.2587 42.0063 12.7612C43.2006 13.2638 44.2858 14.0004 45.1998 14.9289C46.1139 15.8575 46.839 16.9599 47.3337 18.1732C47.8284 19.3864 48.083 20.6868 48.083 22Z" fill="#256CCB"/>
<path d="M22.4893 22H10.6768C9.11032 22 7.60805 22.6321 6.50041 23.7574C5.39277 24.8826 4.77051 26.4087 4.77051 28V32H8.70801V28C8.70801 27.4696 8.91543 26.9609 9.28464 26.5858C9.65385 26.2107 10.1546 26 10.6768 26H22.4893C23.0114 26 23.5122 26.2107 23.8814 26.5858C24.2506 26.9609 24.458 27.4696 24.458 28V32H28.3955V28C28.3955 26.4087 27.7732 24.8826 26.6656 23.7574C25.558 22.6321 24.0557 22 22.4893 22Z" fill="#256CCB"/>
<path d="M16.583 20C18.1405 20 19.6631 19.5308 20.9581 18.6518C22.2532 17.7727 23.2625 16.5233 23.8586 15.0615C24.4546 13.5997 24.6106 11.9911 24.3067 10.4393C24.0028 8.88743 23.2528 7.46197 22.1515 6.34315C21.0501 5.22433 19.6469 4.4624 18.1193 4.15372C16.5917 3.84504 15.0083 4.00347 13.5694 4.60897C12.1304 5.21447 10.9005 6.23985 10.0352 7.55544C9.16987 8.87103 8.70801 10.4178 8.70801 12C8.70801 14.1217 9.53769 16.1566 11.0145 17.6569C12.4914 19.1571 14.4944 20 16.583 20ZM16.583 8C17.3618 8 18.123 8.2346 18.7706 8.67413C19.4181 9.11365 19.9228 9.73837 20.2208 10.4693C20.5188 11.2002 20.5968 12.0044 20.4449 12.7804C20.2929 13.5563 19.9179 14.269 19.3672 14.8284C18.8166 15.3878 18.115 15.7688 17.3512 15.9231C16.5874 16.0775 15.7957 15.9983 15.0762 15.6955C14.3567 15.3928 13.7418 14.8801 13.3091 14.2223C12.8764 13.5645 12.6455 12.7911 12.6455 12C12.6455 10.9391 13.0604 9.92172 13.7988 9.17158C14.5372 8.42143 15.5387 8 16.583 8Z" fill="#256CCB"/>
<path d="M53.9893 50H42.1768C40.6103 50 39.108 50.6321 38.0004 51.7574C36.8928 52.8826 36.2705 54.4087 36.2705 56V60H40.208V56C40.208 55.4696 40.4154 54.9609 40.7846 54.5858C41.1539 54.2107 41.6546 54 42.1768 54H53.9893C54.5114 54 55.0122 54.2107 55.3814 54.5858C55.7506 54.9609 55.958 55.4696 55.958 56V60H59.8955V56C59.8955 54.4087 59.2732 52.8826 58.1656 51.7574C57.058 50.6321 55.5557 50 53.9893 50Z" fill="#256CCB"/>
<path d="M40.208 40C40.208 41.5823 40.6699 43.129 41.5352 44.4446C42.4005 45.7602 43.6304 46.7855 45.0694 47.391C46.5083 47.9965 48.0917 48.155 49.6193 47.8463C51.1469 47.5376 52.5501 46.7757 53.6515 45.6569C54.7528 44.538 55.5028 43.1126 55.8067 41.5607C56.1105 40.0089 55.9546 38.4003 55.3586 36.9385C54.7625 35.4767 53.7532 34.2273 52.4581 33.3482C51.1631 32.4692 49.6405 32 48.083 32C45.9944 32 43.9914 32.8429 42.5145 34.3432C41.0377 35.8434 40.208 37.8783 40.208 40ZM52.0205 40C52.0205 40.7911 51.7896 41.5645 51.3569 42.2223C50.9243 42.8801 50.3093 43.3928 49.5898 43.6955C48.8703 43.9983 48.0786 44.0775 47.3148 43.9231C46.551 43.7688 45.8494 43.3878 45.2988 42.8284C44.7481 42.269 44.3731 41.5563 44.2212 40.7804C44.0692 40.0044 44.1472 39.2002 44.4452 38.4693C44.7433 37.7384 45.2479 37.1137 45.8954 36.6741C46.543 36.2346 47.3042 36 48.083 36C49.1273 36 50.1288 36.4214 50.8672 37.1716C51.6057 37.9217 52.0205 38.9391 52.0205 40Z" fill="#256CCB"/>
</g>
</g>
</svg>
