<svg width="21" height="20" viewBox="0 0 21 20" fill="none" xmlns="http://www.w3.org/2000/svg">
<g id="icon">
<g id="shape">
<path d="M8 2.5H4.25C3.91848 2.5 3.60054 2.6317 3.36612 2.86612C3.1317 3.10054 3 3.41848 3 3.75V7.5C3 7.83152 3.1317 8.14946 3.36612 8.38388C3.60054 8.6183 3.91848 8.75 4.25 8.75H8C8.33152 8.75 8.64946 8.6183 8.88388 8.38388C9.1183 8.14946 9.25 7.83152 9.25 7.5V3.75C9.25 3.41848 9.1183 3.10054 8.88388 2.86612C8.64946 2.6317 8.33152 2.5 8 2.5ZM8 7.5H4.25V3.75H8V7.5Z" fill="#114634"/>
<path d="M16.75 2.5H13C12.6685 2.5 12.3505 2.6317 12.1161 2.86612C11.8817 3.10054 11.75 3.41848 11.75 3.75V7.5C11.75 7.83152 11.8817 8.14946 12.1161 8.38388C12.3505 8.6183 12.6685 8.75 13 8.75H16.75C17.0815 8.75 17.3995 8.6183 17.6339 8.38388C17.8683 8.14946 18 7.83152 18 7.5V3.75C18 3.41848 17.8683 3.10054 17.6339 2.86612C17.3995 2.6317 17.0815 2.5 16.75 2.5ZM16.75 7.5H13V3.75H16.75V7.5Z" fill="#114634"/>
<path d="M8 11.25H4.25C3.91848 11.25 3.60054 11.3817 3.36612 11.6161C3.1317 11.8505 3 12.1685 3 12.5V16.25C3 16.5815 3.1317 16.8995 3.36612 17.1339C3.60054 17.3683 3.91848 17.5 4.25 17.5H8C8.33152 17.5 8.64946 17.3683 8.88388 17.1339C9.1183 16.8995 9.25 16.5815 9.25 16.25V12.5C9.25 12.1685 9.1183 11.8505 8.88388 11.6161C8.64946 11.3817 8.33152 11.25 8 11.25ZM8 16.25H4.25V12.5H8V16.25Z" fill="#114634"/>
<path d="M16.75 11.25H13C12.6685 11.25 12.3505 11.3817 12.1161 11.6161C11.8817 11.8505 11.75 12.1685 11.75 12.5V16.25C11.75 16.5815 11.8817 16.8995 12.1161 17.1339C12.3505 17.3683 12.6685 17.5 13 17.5H16.75C17.0815 17.5 17.3995 17.3683 17.6339 17.1339C17.8683 16.8995 18 16.5815 18 16.25V12.5C18 12.1685 17.8683 11.8505 17.6339 11.6161C17.3995 11.3817 17.0815 11.25 16.75 11.25ZM16.75 16.25H13V12.5H16.75V16.25Z" fill="#114634"/>
</g>
</g>
</svg>
