<svg width="64" height="64" viewBox="0 0 64 64" fill="none" xmlns="http://www.w3.org/2000/svg">
<g id="icons/ic_marketing_real_time">
<g id="Vector">
<path d="M58.7072 12.2928L48.7072 2.29285C48.5196 2.10534 48.2653 2.00001 48 2H23C21.9395 2.00121 20.9228 2.42303 20.173 3.17291C19.4231 3.9228 19.0013 4.93951 19 6V35H21V6C21.0006 5.46975 21.2116 4.9614 21.5865 4.58646C21.9614 4.21151 22.4698 4.00061 23 4H47V10C47.0013 11.0605 47.4231 12.0772 48.173 12.8271C48.9228 13.577 49.9395 13.9988 51 14H57V58C56.9994 58.5302 56.7885 59.0386 56.4136 59.4135C56.0386 59.7885 55.5303 59.9994 55 60H23C22.5082 60.0004 22.0335 59.8191 21.667 59.491L20.333 60.9812C21.0661 61.6378 22.0159 62.0006 23 62H55C56.0605 61.9988 57.0772 61.577 57.8271 60.8271C58.577 60.0772 58.9988 59.0605 59 58V13C59 12.7348 58.8947 12.4804 58.7072 12.2928ZM49 10V5.41419L55.5859 12H51C50.4698 11.9994 49.9614 11.7885 49.5865 11.4135C49.2116 11.0386 49.0006 10.5302 49 10Z" fill="#256CCB"/>
<path d="M23 6H27V8H23V6Z" fill="#256CCB"/>
<path d="M29 6H36V8H29V6Z" fill="#256CCB"/>
<path d="M23 10H29V12H23V10Z" fill="#256CCB"/>
<path d="M23 16H30V18H23V16Z" fill="#256CCB"/>
<path d="M32 16H40V18H32V16Z" fill="#256CCB"/>
<path d="M23 20H32V22H23V20Z" fill="#256CCB"/>
<path d="M28 24H38V26H28V24Z" fill="#256CCB"/>
<path d="M40 24H49V26H40V24Z" fill="#256CCB"/>
<path d="M51 24H55V26H51V24Z" fill="#256CCB"/>
<path d="M23 28H33V30H23V28Z" fill="#256CCB"/>
<path d="M35 28H44V30H35V28Z" fill="#256CCB"/>
<path d="M46 28H55V30H46V28Z" fill="#256CCB"/>
<path d="M23 32H38V34H23V32Z" fill="#256CCB"/>
<path d="M40 32H49V34H40V32Z" fill="#256CCB"/>
<path d="M51 32H55V34H51V32Z" fill="#256CCB"/>
<path d="M29 51C28.7348 51 28.4805 51.1054 28.2929 51.2929C28.1054 51.4804 28.0001 51.7348 28 52V58C28.0001 58.2652 28.1054 58.5196 28.2929 58.7071C28.4805 58.8946 28.7348 59 29 59H35C35.2653 59 35.5196 58.8946 35.7071 58.7071C35.8947 58.5196 36 58.2652 36 58V52C36 51.7348 35.8947 51.4804 35.7071 51.2929C35.5196 51.1054 35.2653 51 35 51H29ZM34 57H30V53H34V57Z" fill="#256CCB"/>
<path d="M38 58C38 58.2652 38.1054 58.5196 38.2929 58.7071C38.4805 58.8946 38.7348 59 39 59H45C45.2653 59 45.5196 58.8946 45.7071 58.7071C45.8947 58.5196 46 58.2652 46 58V47C46 46.7348 45.8947 46.4804 45.7071 46.2929C45.5196 46.1054 45.2653 46 45 46H39C38.7348 46 38.4805 46.1054 38.2929 46.2929C38.1054 46.4804 38 46.7348 38 47V58ZM40 48H44V57H40V48Z" fill="#256CCB"/>
<path d="M49 59H55C55.2653 59 55.5196 58.8946 55.7071 58.7071C55.8947 58.5196 56 58.2652 56 58V43C56 42.7348 55.8947 42.4804 55.7071 42.2929C55.5196 42.1054 55.2653 42 55 42H49C48.7348 42 48.4805 42.1054 48.2929 42.2929C48.1054 42.4804 48 42.7348 48 43V58C48 58.2652 48.1054 58.5196 48.2929 58.7071C48.4805 58.8946 48.7348 59 49 59ZM50 44H54V57H50V44Z" fill="#256CCB"/>
<path d="M7.00001 47.9991C7.00278 45.6867 7.89453 43.4638 9.49068 41.7905C11.0868 40.1173 13.2652 39.1217 15.575 39.0099L14.2929 40.292L15.7072 41.7063L18.7072 38.7063C18.8947 38.5187 19 38.2644 19 37.9991C19 37.7339 18.8947 37.4796 18.7072 37.292L15.7072 34.292L14.2929 35.7063L15.594 37.0074C13.2089 37.0957 10.9173 37.9572 9.06472 39.4621C7.21218 40.9669 5.89931 43.0334 5.32417 45.3498C4.74904 47.6662 4.94285 50.1068 5.87637 52.3034C6.80988 54.5 8.43245 56.3334 10.4993 57.527L11.5007 55.7958C10.1345 55.003 8.99992 53.8659 8.2102 52.4979C7.42049 51.1299 7.00322 49.5787 7.00001 47.9991Z" fill="#256CCB"/>
<path d="M27 48C26.9962 46.0697 26.4865 44.1742 25.5215 42.5024C24.5566 40.8306 23.1703 39.441 21.5008 38.4722L20.4993 40.2034C22.1837 41.1758 23.5079 42.6677 24.2734 44.4556C25.039 46.2436 25.2048 48.2314 24.7461 50.1215C24.2873 52.0116 23.2286 53.7022 21.7286 54.9403C20.2286 56.1783 18.3678 56.8972 16.425 56.9892L17.7072 55.7072L16.2929 54.2929L13.2929 57.2929C13.1053 57.4804 13 57.7348 13 58C13 58.2652 13.1053 58.5196 13.2929 58.7072L16.2929 61.7072L17.7072 60.2929L16.406 58.9917C19.2499 58.8835 21.9416 57.6785 23.9166 55.6293C25.8916 53.5802 26.9966 50.846 27 48Z" fill="#256CCB"/>
<path d="M16.7072 48.7072C16.8947 48.5196 17 48.2652 17 48V43H15V47.5858L12.2929 50.2928L13.7072 51.7072L16.7072 48.7072Z" fill="#256CCB"/>
</g>
</g>
</svg>
