<svg width="65" height="64" viewBox="0 0 65 64" fill="none" xmlns="http://www.w3.org/2000/svg">
<g id="icons/ic_profile">
<g id="Vector">
<path d="M51.2215 3.48306H20.2408C19.7229 3.48306 19.3033 3.90281 19.3033 4.42055C19.3033 4.9383 19.7229 5.35805 20.2408 5.35805H51.2216C51.7395 5.35805 52.1591 4.9383 52.1591 4.42055C52.1591 3.90281 51.7394 3.48306 51.2215 3.48306Z" fill="#256CCB"/>
<path d="M26.7554 35.191C26.7554 33.9678 25.7602 32.9725 24.537 32.9725H15.2609C14.0376 32.9725 13.0424 33.9676 13.0424 35.191V42.4456C13.0424 43.6689 14.0376 44.6641 15.2609 44.6641H24.537C25.7602 44.6641 26.7554 43.669 26.7554 42.4456V35.191ZM24.8804 42.4456C24.8804 42.635 24.7264 42.7891 24.537 42.7891H15.2609C15.0714 42.7891 14.9174 42.6351 14.9174 42.4456V35.191C14.9174 35.0016 15.0714 34.8475 15.2609 34.8475H24.537C24.7264 34.8475 24.8804 35.0015 24.8804 35.191V42.4456Z" fill="#256CCB"/>
<path d="M24.537 47.0048H15.2609C14.0376 47.0048 13.0424 48 13.0424 49.2233V56.4779C13.0424 57.7012 14.0376 58.6964 15.2609 58.6964H24.537C25.7602 58.6964 26.7554 57.7012 26.7554 56.4779V49.2233C26.7554 47.9999 25.7602 47.0048 24.537 47.0048ZM24.8804 56.4778C24.8804 56.6672 24.7264 56.8213 24.537 56.8213H15.2609C15.0714 56.8213 14.9174 56.6672 14.9174 56.4778V49.2232C14.9174 49.0338 15.0714 48.8797 15.2609 48.8797H24.537C24.7264 48.8797 24.8804 49.0338 24.8804 49.2232V56.4778Z" fill="#256CCB"/>
<path d="M49.7972 34.1808H30.2257C29.7078 34.1808 29.2882 34.6006 29.2882 35.1183C29.2882 35.6361 29.7078 36.0558 30.2257 36.0558H49.7972C50.3151 36.0558 50.7347 35.6361 50.7347 35.1183C50.7347 34.6006 50.3149 34.1808 49.7972 34.1808Z" fill="#256CCB"/>
<path d="M49.7972 37.8806H30.2257C29.7078 37.8806 29.2882 38.3004 29.2882 38.8181C29.2882 39.3359 29.7078 39.7556 30.2257 39.7556H49.7972C50.3151 39.7556 50.7347 39.3359 50.7347 38.8181C50.7347 38.3004 50.3149 37.8806 49.7972 37.8806Z" fill="#256CCB"/>
<path d="M49.7972 41.5809H30.2257C29.7078 41.5809 29.2882 42.0006 29.2882 42.5184C29.2882 43.0361 29.7078 43.4559 30.2257 43.4559H49.7972C50.3151 43.4559 50.7347 43.0361 50.7347 42.5184C50.7347 42.0006 50.3149 41.5809 49.7972 41.5809Z" fill="#256CCB"/>
<path d="M49.7972 48.213H30.2257C29.7078 48.213 29.2882 48.6327 29.2882 49.1505C29.2882 49.6682 29.7078 50.088 30.2257 50.088H49.7972C50.3151 50.088 50.7347 49.6682 50.7347 49.1505C50.7347 48.6327 50.3149 48.213 49.7972 48.213Z" fill="#256CCB"/>
<path d="M49.7972 51.9132H30.2257C29.7078 51.9132 29.2882 52.333 29.2882 52.8507C29.2882 53.3685 29.7078 53.7882 30.2257 53.7882H49.7972C50.3151 53.7882 50.7347 53.3685 50.7347 52.8507C50.7347 52.333 50.3149 51.9132 49.7972 51.9132Z" fill="#256CCB"/>
<path d="M49.7972 55.613H30.2257C29.7078 55.613 29.2882 56.0328 29.2882 56.5505C29.2882 57.0683 29.7078 57.488 30.2257 57.488H49.7972C50.3151 57.488 50.7347 57.0683 50.7347 56.5505C50.7347 56.0328 50.3149 55.613 49.7972 55.613Z" fill="#256CCB"/>
<path d="M21.1239 37.0215L19.519 38.6265L18.6738 37.7813C18.3075 37.4152 17.714 37.4152 17.3479 37.7813C16.9818 38.1474 16.9818 38.741 17.3479 39.107L18.856 40.6152C19.222 40.981 19.8156 40.9813 20.1819 40.6152L22.4498 38.3473C22.8159 37.9812 22.8159 37.3875 22.4498 37.0215C22.0837 36.6555 21.4902 36.6555 21.1239 37.0215Z" fill="#256CCB"/>
<path d="M21.1238 51.0539L19.5189 52.6589L18.6735 51.8136C18.3075 51.4474 17.7139 51.4475 17.3478 51.8136C16.9817 52.1798 16.9817 52.7734 17.3479 53.1394L18.856 54.6475C19.2218 55.0135 19.8154 55.0138 20.1818 54.6475L22.4497 52.3796C22.8158 52.0135 22.8158 51.4199 22.4497 51.0539C22.0835 50.6878 21.49 50.6878 21.1238 51.0539Z" fill="#256CCB"/>
<path d="M32.3333 30.1341C37.6762 30.1341 41.9999 25.7793 41.9999 20.4675C41.9999 16.057 39.0207 12.2078 34.7551 11.107C34.2533 10.9777 33.7422 11.2792 33.6131 11.7805C33.4837 12.2818 33.7852 12.7931 34.2866 12.9225C37.7241 13.8096 40.1249 16.9121 40.1249 20.4673C40.1249 22.0392 39.6556 23.5027 38.8517 24.7282V24.7058C38.8517 22.8648 37.5108 21.3321 35.7547 21.0303C36.2012 20.3708 36.4622 19.576 36.4622 18.7213C36.4622 16.4446 34.6099 14.5922 32.3332 14.5922C30.0563 14.5922 28.204 16.4445 28.204 18.7213C28.204 19.576 28.465 20.3708 28.9115 21.0303C27.1554 21.3322 25.8145 22.865 25.8145 24.7058V24.7282C25.0108 23.5027 24.5413 22.0392 24.5413 20.4673C24.5413 16.9121 26.9422 13.8095 30.3798 12.9225C30.8812 12.7931 31.1827 12.2818 31.0533 11.7805C30.924 11.2792 30.4124 10.9776 29.9113 11.107C25.6455 12.2078 22.6663 16.057 22.6663 20.4675C22.6665 25.7653 26.9718 30.1341 32.3333 30.1341ZM32.3333 16.4675C33.5762 16.4675 34.5873 17.4786 34.5873 18.7216C34.5873 19.9646 33.5762 20.9757 32.3333 20.9757C31.0904 20.9757 30.0792 19.9646 30.0792 18.7216C30.0792 17.4786 31.0904 16.4675 32.3333 16.4675ZM27.6898 24.706C27.6898 23.6828 28.5222 22.8506 29.5453 22.8506H35.1214C36.1446 22.8506 36.9768 23.683 36.9768 24.706V26.7201C35.5854 27.7561 33.9356 28.2591 32.3334 28.2591C30.7278 28.2591 29.077 27.753 27.6899 26.7201L27.6898 24.706Z" fill="#256CCB"/>
<path d="M7.85059 3.34074V60.6593C7.85059 62.5014 9.3492 64 11.1913 64H53.475C55.3172 64 56.8159 62.5014 56.8159 60.6593V34.1875C56.8159 33.6697 56.3963 33.25 55.8784 33.25C55.3605 33.25 54.9409 33.6697 54.9409 34.1875V60.6593C54.9409 61.4675 54.2833 62.125 53.475 62.125H11.1912C10.383 62.125 9.72545 61.4675 9.72545 60.6593V8.84072H54.9407V29.8125C54.9407 30.3303 55.3603 30.75 55.8781 30.75C56.396 30.75 56.8156 30.3303 56.8156 29.8125V3.34074C56.8156 1.49862 55.317 0 53.4749 0H11.1912C9.34921 0 7.85059 1.49862 7.85059 3.34074ZM16.6049 1.87499H53.4749C54.2832 1.87499 54.9408 2.53249 54.9408 3.34074V6.96572H16.6049V1.87499ZM14.7299 6.96572H9.72558V3.34074C9.72558 2.53249 10.383 1.87499 11.1912 1.87499H14.7299V6.96572Z" fill="#256CCB"/>
</g>
</g>
</svg>
