<svg width="65" height="64" viewBox="0 0 65 64" fill="none" xmlns="http://www.w3.org/2000/svg">
<g id="icons/ic_popularity" clip-path="url(#clip0_887_1153)">
<g id="Vector">
<path d="M25.059 14.589C25.2062 14.7325 25.2735 14.9394 25.2387 15.1421L24.4035 20.0116C24.049 21.8787 26.134 23.6511 28.0307 22.6469L32.4037 20.3477C32.5858 20.2521 32.8032 20.2519 32.9853 20.3477L37.3585 22.6469C39.0303 23.6 41.3576 22.0521 40.9857 20.0116L40.1505 15.1421C40.1157 14.9394 40.1828 14.7326 40.3302 14.589L43.8681 11.1403C44.5545 10.4711 44.7968 9.48925 44.5007 8.57763C44.2045 7.666 43.4312 7.014 42.4826 6.87625L37.5931 6.16575C37.3897 6.13625 37.2138 6.00837 37.1227 5.824L34.9363 1.3935C34.5121 0.534 33.6531 0 32.6946 0C31.7361 0 30.8771 0.534 30.4528 1.3935L28.2663 5.82387C28.1752 6.0085 27.9993 6.13625 27.7957 6.16575L22.9063 6.87625C20.977 7.09212 20.0286 9.7085 21.521 11.1404L25.059 14.589ZM22.6716 9.15713C22.7077 9.046 22.8291 8.78212 23.1761 8.73175L28.0652 8.02125C28.8796 7.90312 29.5833 7.392 29.9477 6.65387L32.1342 2.2235C32.2893 1.909 32.5777 1.87513 32.6946 1.87513C32.8115 1.87513 33.0998 1.909 33.255 2.2235L35.4416 6.654C35.806 7.392 36.5096 7.90312 37.3238 8.02125L42.2131 8.73175C42.5601 8.78212 42.6816 9.04613 42.7176 9.15713C42.7536 9.26813 42.8106 9.553 42.5595 9.79762L39.0216 13.2463C38.4323 13.8206 38.1635 14.6479 38.3026 15.459L39.1378 20.3285C39.1971 20.6741 38.9837 20.8711 38.8892 20.9398C38.7947 21.0084 38.5416 21.1504 38.2311 20.9872L33.858 18.6881C33.1296 18.3053 32.2598 18.3053 31.5313 18.6881L27.1582 20.9872C26.8478 21.1507 26.5946 21.0084 26.5001 20.9398C26.4056 20.8711 26.1922 20.6741 26.2515 20.3285L27.0867 15.459C27.2258 14.6479 26.957 13.8206 26.3677 13.2463L22.8298 9.79775C22.5787 9.553 22.6356 9.26825 22.6716 9.15713Z" fill="#256CCB"/>
<path d="M43.4531 17.3744C43.2097 18.1231 43.4088 18.9299 43.9727 19.4796L46.5 21.943C46.5421 21.9841 46.5613 22.0432 46.5515 22.1012L45.9548 25.5799C45.645 27.115 47.397 28.5401 48.9346 27.7446L52.0585 26.1022C52.1106 26.0749 52.1728 26.0749 52.2248 26.1022L55.3487 27.7446C56.5885 28.5094 58.6776 27.3001 58.3285 25.5799L57.7318 22.1012C57.7218 22.0432 57.7412 21.984 57.7832 21.9431L60.3107 19.4795C61.4503 18.4467 60.8837 16.2077 59.1725 15.9767L55.6798 15.4692C55.6217 15.4609 55.5713 15.4242 55.5453 15.3715L53.9833 12.2067C53.3127 10.7915 51.156 10.647 50.3002 12.2066L48.7383 15.3714C48.7123 15.4242 48.662 15.4609 48.6038 15.4692L45.1111 15.9767C44.3316 16.09 43.6963 16.6255 43.4531 17.3744ZM45.2363 17.9537C45.2591 17.8836 45.3076 17.8427 45.3805 17.8321L48.8732 17.3246C49.5421 17.2274 50.1201 16.8074 50.4195 16.2012L51.9815 13.0364C52.0141 12.9704 52.068 12.9367 52.1416 12.9367C52.2152 12.9367 52.2691 12.9702 52.3017 13.0362L53.8638 16.2014C54.1631 16.8075 54.7411 17.2274 55.4101 17.3246L58.9027 17.8321C58.9756 17.8427 59.0242 17.8836 59.047 17.9537C59.0697 18.0239 59.0546 18.0855 59.0018 18.1369L56.4742 20.6006C55.9902 21.0725 55.7696 21.752 55.8837 22.4181L56.4803 25.8969C56.4928 25.9694 56.469 26.0282 56.4093 26.0714C56.3497 26.1147 56.2865 26.1192 56.2212 26.0849L53.0971 24.4425C52.4988 24.128 51.7845 24.128 51.186 24.4425L48.062 26.0849C47.9967 26.119 47.9335 26.1146 47.8738 26.0714C47.8142 26.0281 47.7903 25.9694 47.8028 25.8967L48.3995 22.4181C48.5137 21.7519 48.2928 21.0724 47.8088 20.6004L45.2816 18.137C45.2287 18.0854 45.2135 18.0237 45.2363 17.9537Z" fill="#256CCB"/>
<path d="M7.48083 21.9441C7.52295 21.9852 7.5422 22.0443 7.53233 22.1023L6.9357 25.581C6.67583 27.0918 8.28408 28.5717 9.91545 27.7457L13.0393 26.1033C13.0915 26.076 13.1537 26.076 13.2057 26.1033L16.3297 27.7457C17.6641 28.5103 19.6185 27.2798 19.3095 25.581L18.7128 22.1022C18.7028 22.0443 18.7221 21.9852 18.7642 21.9442L21.2913 19.4806C22.431 18.4478 21.8643 16.2088 20.1531 15.9778L16.6606 15.4703C16.6023 15.462 16.552 15.4253 16.526 15.3726L14.964 12.2077C14.3191 10.783 12.0331 10.6628 11.2808 12.2077L9.71883 15.3725C9.69283 15.4253 9.64245 15.462 9.58433 15.4703L6.09158 15.9778C4.53583 16.1576 3.7217 18.2642 4.95345 19.4807L7.48083 21.9441ZM6.21708 17.9548C6.23983 17.8847 6.28833 17.8438 6.3612 17.8332L9.85395 17.3257C10.5228 17.2285 11.1008 16.8085 11.4002 16.2023L12.9622 13.0373C12.9948 12.9713 13.0487 12.9378 13.1223 12.9378C13.196 12.9378 13.25 12.9713 13.2825 13.0375L14.8445 16.2025C15.1437 16.8086 15.7217 17.2285 16.3907 17.3257L19.8833 17.8332C19.9562 17.8438 20.0048 17.8847 20.0276 17.9548C20.0503 18.025 20.0352 18.0866 19.9825 18.138L17.455 20.6016C16.9708 21.0735 16.7501 21.7531 16.8645 22.4192L17.4611 25.8978C17.4736 25.9705 17.4496 26.0293 17.3901 26.0725C17.3306 26.1158 17.2672 26.1203 17.202 26.086L14.078 24.4436C13.4796 24.1291 12.7652 24.1291 12.1667 24.4436L9.0427 26.086C8.97758 26.1203 8.9142 26.1157 8.8547 26.0725C8.7952 26.0292 8.7712 25.9705 8.7837 25.8978L9.38033 22.4193C9.4947 21.7531 9.27383 21.0735 8.7897 20.6015L6.26245 18.1381C6.20958 18.0865 6.19433 18.0248 6.21708 17.9548Z" fill="#256CCB"/>
<path d="M30.619 15.2002C31.0438 15.4732 31.3877 15.6147 31.7571 15.6852V15.9771C31.7571 16.4905 32.1526 16.9381 32.6657 16.9535C33.1966 16.9695 33.6321 16.5439 33.6321 16.0164V15.5527C34.4378 15.2217 35.046 14.497 35.1977 13.593C35.3946 12.4206 34.76 11.3621 33.6185 10.9591C33.4287 10.882 33.1535 10.8326 32.5523 10.607C32.387 10.526 32.2913 10.3429 32.3316 10.1631C32.351 10.0882 32.4041 9.94035 32.6093 9.80035C32.8907 9.65648 33.2396 9.95123 33.2548 9.96385C33.6757 10.3114 34.309 10.2296 34.6252 9.77048C34.9123 9.35373 34.7907 8.7841 34.392 8.47248C34.1756 8.30335 33.917 8.15323 33.6321 8.04623V7.77698C33.6321 7.2636 33.2366 6.81598 32.7235 6.8006C32.1926 6.7846 31.7571 7.21023 31.7571 7.73773V8.1241C31.7523 8.12648 31.7476 8.12823 31.7428 8.1306C31.0961 8.46123 30.64 9.0706 30.4915 9.80273C30.3535 10.483 30.5108 11.1749 30.9123 11.6532C31.4858 12.3027 32.1507 12.4681 32.9943 12.7271C33.0988 12.764 33.4168 12.8762 33.3487 13.2822C33.3121 13.5005 33.1238 13.8705 32.6508 13.8736C32.1096 13.877 31.9947 13.8594 31.6068 13.606C31.143 13.3031 30.5102 13.4636 30.2542 13.9741C30.0365 14.4082 30.2103 14.9377 30.619 15.2002Z" fill="#256CCB"/>
<path d="M60.4509 55.0978L55.7294 53.1523V51.3258C57.3095 49.7659 58.635 47.1059 58.8645 44.9062C60.4666 40.7872 58.7319 37.3097 56.9567 35.6909C57.4549 32.8922 55.1016 30.0696 52.2079 30.1256C49.3311 30.1333 46.994 32.7278 47.4564 35.6751C46.4046 36.5898 45.5455 37.9849 45.1081 39.5173C44.5481 41.4793 44.7221 43.4901 45.5921 45.2021C45.9182 47.3504 47.1246 49.7388 48.6885 51.3218V53.1524L44.9525 54.6919C44.5171 54.1529 43.9637 53.7057 43.3176 53.4002C42.8496 53.1789 42.2907 53.3788 42.0694 53.8468C41.848 54.3149 42.048 54.8738 42.516 55.0952C43.495 55.5582 44.1276 56.5574 44.1276 57.6409V62.1252H33.6311V57.4012C34.601 57.3677 35.3795 56.5684 35.3795 55.5907V53.0548C35.6589 52.8881 35.9226 52.6937 36.1686 52.4758L38.5157 53.4431C38.8587 53.5737 39.4556 53.5123 39.7397 52.9334C39.9371 52.4547 39.7089 51.9067 39.2301 51.7094L36.8856 50.7433V47.1886C39.0831 45.3697 40.3865 42.4147 40.7932 39.2348C41.8894 37.3892 43.6974 32.5447 40.5169 29.3243C39.2057 27.9969 37.3495 27.7378 35.8379 28.0506C34.6187 25.3789 30.599 25.0581 27.1991 27.0461C26.7536 27.3098 26.6064 27.8849 26.8702 28.3304C27.134 28.7758 27.7092 28.9232 28.1546 28.6593C30.8424 27.1886 33.6624 27.2169 34.224 29.1287L33.0226 32.3346C32.3591 33.0714 31.5209 33.6406 30.5851 33.9811C28.2647 34.8256 26.6966 36.1732 25.7721 37.1847C25.305 35.6508 25.0565 33.3552 25.7579 31.4463C25.9364 30.9602 25.6872 30.4216 25.2011 30.2429C24.7154 30.0646 24.1765 30.3137 23.9979 30.7996C22.9094 33.7623 23.6195 37.4646 24.5959 39.2422C25.0262 42.4089 26.1834 45.2121 28.5039 47.1901V50.7434L22.2911 53.3033C21.539 53.6132 20.9016 54.1017 20.4164 54.7067L16.6446 53.1524V51.1089C18.42 49.1703 19.8815 45.6092 19.8361 43.2204C19.8361 38.8651 17.3266 36.2648 13.1232 36.2648C11.4585 36.2648 10.0514 36.6714 8.94136 37.4732C8.52161 37.7764 8.42711 38.3624 8.73036 38.7822C9.03361 39.2019 9.61961 39.2964 10.0392 38.9932C10.8231 38.4269 11.8607 38.1398 13.1232 38.1398C17.1217 38.1398 17.9611 40.9027 17.9611 43.2204C18.1041 45.6112 15.5457 50.9874 13.1232 51.2277C10.2744 50.6928 7.80823 44.9872 8.35161 42.1573C8.41886 41.6439 8.05723 41.1732 7.54386 41.1059C7.03061 41.0401 6.55986 41.4003 6.49248 41.9137C6.05636 44.8803 7.39736 48.5484 9.60361 51.1099V53.1522L4.88211 55.0977C3.35323 55.7276 2.36523 57.2032 2.36523 58.8568V61.8112C2.36523 63.0181 3.34711 64.0001 4.55398 64.0001H60.779C61.9859 64.0001 62.9677 63.0182 62.9677 61.8112V58.8568C62.9676 57.2033 61.9797 55.7277 60.4509 55.0978ZM39.1827 30.6418C41.0944 32.5773 40.4275 35.5303 39.6721 37.2969C38.9881 36.6071 37.9662 35.6848 36.7132 34.8828C35.8644 34.3393 35.1974 33.6008 34.8422 32.8216L35.9125 29.9657C36.8146 29.7062 38.2476 29.6951 39.1827 30.6418ZM26.491 39.2713C26.9241 38.6482 28.4152 36.7659 31.2261 35.7429C32.0832 35.4309 32.8789 34.9728 33.5774 34.3956C34.098 35.1886 34.8231 35.8989 35.7024 36.4618C37.244 37.4487 38.415 38.6691 38.9036 39.2168C38.3871 42.9198 36.2506 46.8234 32.6935 46.8234C29.1559 46.8234 27.0201 42.9536 26.491 39.2713ZM32.6935 48.6984C33.503 48.6984 34.2784 48.5547 35.0105 48.2764V50.9967C33.849 52.1596 31.6631 52.2374 30.3787 50.9974V48.2773C31.1102 48.5551 31.8849 48.6984 32.6935 48.6984ZM19.3869 62.1252H17.5139L19.3867 59.4624L19.3869 62.1252ZM9.60348 60.1004L6.92036 56.2859L9.60348 55.1804V60.1004ZM11.4785 56.8253C12.3911 57.2093 13.663 57.2753 14.7695 56.8252V62.1252H11.4785V56.8253ZM16.6445 55.1803L19.3286 56.2863L16.6445 60.1024V55.1803ZM14.7695 52.6522V54.6493C13.9515 55.4083 12.4452 55.5063 11.4785 54.6487C11.4785 54.1712 11.4785 53.1634 11.4785 52.6528C12.4662 53.1667 13.5702 53.3008 14.7695 52.6522ZM4.24011 61.8113V58.8569C4.24011 58.1292 4.59536 57.4658 5.17423 57.0622L8.73536 62.1252H4.55386C4.38086 62.1252 4.24011 61.9844 4.24011 61.8113ZM21.2619 57.6408C21.2619 56.4953 21.9462 55.4731 23.0052 55.0368L29.2206 52.4758C30.3644 53.4381 31.8405 53.9848 33.5044 53.7313V55.5283C32.5345 55.5618 31.756 56.3611 31.756 57.3389V62.1252H21.2619V57.6408ZM52.2079 32.0004C53.6934 32.0004 54.9237 33.1099 55.116 34.5436C53.312 33.8064 51.1462 33.8142 49.2967 34.5674C49.4784 33.1223 50.7141 32.0004 52.2079 32.0004ZM48.9886 36.8524C49.8551 36.2449 51.0659 35.8706 52.3017 35.8706C53.3896 35.8706 54.4971 36.1606 55.4066 36.8371C56.3394 37.5309 58.3517 39.9943 57.3655 43.4929C56.549 42.8953 55.423 41.3401 54.6906 39.9133C54.5481 39.6351 54.2762 39.4466 53.9659 39.4099C53.6556 39.3733 53.3471 39.4942 53.1437 39.7313C52.2091 40.8227 49.4335 43.5239 47.0664 43.9253C45.9437 41.1468 47.348 38.0028 48.9886 36.8524ZM47.6097 45.7267C50.0531 45.2053 52.4242 43.1459 53.6707 41.9052C54.2852 43.0102 55.9015 45.0086 56.89 45.3718C56.2514 48.4296 53.8195 51.2277 52.2077 51.2277C50.6957 51.2277 48.3621 48.6253 47.6097 45.7267ZM52.2079 53.1027C52.742 53.1027 53.2979 52.9637 53.8542 52.6998C53.8544 52.6932 53.8541 53.7131 53.8544 53.7929C53.8886 55.2431 53.2714 56.8691 52.211 57.9859C51.2235 56.9623 50.5432 55.3454 50.5629 53.8344C50.5636 53.7854 50.563 52.8632 50.5631 52.7027C51.1016 52.9582 51.6546 53.1027 52.2079 53.1027ZM48.7914 55.1378C49.0252 56.5609 49.6499 57.8997 50.6086 59.0008L51.2714 59.7621V62.1252H46.0025V57.6408C46.0025 57.2024 45.9392 56.7726 45.8216 56.3616L48.7914 55.1378ZM61.0926 61.8113C61.0926 61.9844 60.9519 62.1252 60.7789 62.1252H53.1462V59.7624L53.7867 59.0333C54.7611 57.9239 55.3935 56.5749 55.6279 55.1386L59.7366 56.8316C60.5604 57.1709 61.0927 57.9659 61.0927 58.8571L61.0926 61.8113Z" fill="#256CCB"/>
<path d="M37.2444 58.3614C36.7266 58.3614 36.3069 58.781 36.3069 59.2989C36.3069 59.8168 36.7266 60.2364 37.2444 60.2364H40.7855C41.3033 60.2364 41.723 59.8168 41.723 59.2989C41.723 58.781 41.3033 58.3614 40.7855 58.3614H37.2444Z" fill="#256CCB"/>
</g>
</g>
<defs>
<clipPath id="clip0_887_1153">
<rect width="64" height="64" fill="white" transform="translate(0.666016)"/>
</clipPath>
</defs>
</svg>
