<svg width="65" height="64" viewBox="0 0 65 64" fill="none" xmlns="http://www.w3.org/2000/svg">
<g id="icons/ic_shopping_cart" clip-path="url(#clip0_887_1117)">
<g id="shape">
<path d="M20.7998 59.9999C23.0089 59.9999 24.7998 58.2091 24.7998 55.9999C24.7998 53.7908 23.0089 51.9999 20.7998 51.9999C18.5907 51.9999 16.7998 53.7908 16.7998 55.9999C16.7998 58.2091 18.5907 59.9999 20.7998 59.9999Z" fill="#256CCB"/>
<path d="M48.7998 59.9999C51.0089 59.9999 52.7998 58.2091 52.7998 55.9999C52.7998 53.7908 51.0089 51.9999 48.7998 51.9999C46.5907 51.9999 44.7998 53.7908 44.7998 55.9999C44.7998 58.2091 46.5907 59.9999 48.7998 59.9999Z" fill="#256CCB"/>
<path d="M56.7998 13.9999H12.4398L10.7998 5.59992C10.7063 5.14137 10.455 4.73012 10.0895 4.43777C9.72408 4.14542 9.2677 3.99048 8.7998 3.99992H0.799805V7.99992H7.1598L14.7998 46.3999C14.8933 46.8585 15.1447 47.2697 15.5101 47.5621C15.8755 47.8544 16.3319 48.0094 16.7998 47.9999H52.7998V43.9999H18.4398L16.7998 35.9999H52.7998C53.2621 36.0112 53.7141 35.8619 54.0787 35.5775C54.4434 35.2931 54.6982 34.8911 54.7998 34.4399L58.7998 16.4399C58.8668 16.1432 58.8653 15.835 58.7952 15.539C58.7252 15.2429 58.5886 14.9667 58.3957 14.7315C58.2029 14.4962 57.9589 14.308 57.6823 14.1812C57.4058 14.0545 57.1039 13.9924 56.7998 13.9999ZM51.1998 31.9999H16.0398L13.2398 17.9999H54.2998L51.1998 31.9999Z" fill="#256CCB"/>
</g>
</g>
<defs>
<clipPath id="clip0_887_1117">
<rect width="64" height="64" fill="white" transform="translate(0.799805)"/>
</clipPath>
</defs>
</svg>
