<svg width="64" height="64" viewBox="0 0 64 64" fill="none" xmlns="http://www.w3.org/2000/svg">
<g id="icons/ic_users_group">
<g id="shape">
<path d="M52 28H48V32H52C53.5908 32.0017 55.1159 32.6344 56.2407 33.7593C57.3656 34.8841 57.9983 36.4092 58 38V46H62V38C61.9969 35.3488 60.9424 32.807 59.0677 30.9323C57.193 29.0576 54.6512 28.0031 52 28Z" fill="#256CCB"/>
<path d="M48 8C49.1867 8 50.3467 8.35189 51.3334 9.01118C52.3201 9.67047 53.0892 10.6075 53.5433 11.7039C53.9974 12.8003 54.1162 14.0067 53.8847 15.1705C53.6532 16.3344 53.0818 17.4035 52.2426 18.2426C51.4035 19.0818 50.3344 19.6532 49.1705 19.8847C48.0067 20.1162 46.8003 19.9974 45.7039 19.5433C44.6075 19.0892 43.6705 18.3201 43.0112 17.3334C42.3519 16.3467 42 15.1867 42 14C42 12.4087 42.6321 10.8826 43.7574 9.75736C44.8826 8.63214 46.4087 8 48 8ZM48 4C46.0222 4 44.0888 4.58649 42.4443 5.6853C40.7998 6.78412 39.5181 8.3459 38.7612 10.1732C38.0043 12.0004 37.8063 14.0111 38.1921 15.9509C38.578 17.8907 39.5304 19.6725 40.9289 21.0711C42.3275 22.4696 44.1093 23.422 46.0491 23.8079C47.9889 24.1937 49.9996 23.9957 51.8268 23.2388C53.6541 22.4819 55.2159 21.2002 56.3147 19.5557C57.4135 17.9112 58 15.9778 58 14C58 11.3478 56.9464 8.8043 55.0711 6.92893C53.1957 5.05357 50.6522 4 48 4Z" fill="#256CCB"/>
<path d="M46 60H42V56C41.9983 54.4092 41.3656 52.8841 40.2407 51.7593C39.1159 50.6344 37.5908 50.0017 36 50H28C26.4092 50.0017 24.8841 50.6344 23.7593 51.7593C22.6344 52.8841 22.0017 54.4092 22 56V60H18V56C18.0031 53.3488 19.0577 50.8071 20.9324 48.9324C22.8071 47.0577 25.3488 46.0031 28 46H36C38.6512 46.0031 41.1929 47.0577 43.0676 48.9324C44.9423 50.8071 45.9969 53.3488 46 56V60Z" fill="#256CCB"/>
<path d="M32 26C33.1867 26 34.3467 26.3519 35.3334 27.0112C36.3201 27.6705 37.0892 28.6075 37.5433 29.7039C37.9974 30.8003 38.1162 32.0067 37.8847 33.1705C37.6532 34.3344 37.0818 35.4035 36.2426 36.2426C35.4035 37.0818 34.3344 37.6532 33.1705 37.8847C32.0067 38.1162 30.8003 37.9974 29.7039 37.5433C28.6075 37.0892 27.6705 36.3201 27.0112 35.3334C26.3519 34.3467 26 33.1867 26 32C26 30.4087 26.6321 28.8826 27.7574 27.7574C28.8826 26.6321 30.4087 26 32 26ZM32 22C30.0222 22 28.0888 22.5865 26.4443 23.6853C24.7998 24.7841 23.5181 26.3459 22.7612 28.1732C22.0043 30.0004 21.8063 32.0111 22.1921 33.9509C22.578 35.8907 23.5304 37.6725 24.9289 39.0711C26.3275 40.4696 28.1093 41.422 30.0491 41.8079C31.9889 42.1937 33.9996 41.9957 35.8268 41.2388C37.6541 40.4819 39.2159 39.2002 40.3147 37.5557C41.4135 35.9112 42 33.9778 42 32C42 29.3478 40.9464 26.8043 39.0711 24.9289C37.1957 23.0536 34.6522 22 32 22Z" fill="#256CCB"/>
<path d="M16 28H12C9.34879 28.0031 6.80707 29.0577 4.93238 30.9324C3.05769 32.8071 2.00312 35.3488 2 38V46H6V38C6.00175 36.4092 6.63445 34.8841 7.75929 33.7593C8.88413 32.6344 10.4092 32.0017 12 32H16V28Z" fill="#256CCB"/>
<path d="M16 8C17.1867 8 18.3467 8.35189 19.3334 9.01118C20.3201 9.67047 21.0892 10.6075 21.5433 11.7039C21.9974 12.8003 22.1162 14.0067 21.8847 15.1705C21.6532 16.3344 21.0818 17.4035 20.2426 18.2426C19.4035 19.0818 18.3344 19.6532 17.1705 19.8847C16.0067 20.1162 14.8003 19.9974 13.7039 19.5433C12.6075 19.0892 11.6705 18.3201 11.0112 17.3334C10.3519 16.3467 10 15.1867 10 14C10 12.4087 10.6321 10.8826 11.7574 9.75736C12.8826 8.63214 14.4087 8 16 8ZM16 4C14.0222 4 12.0888 4.58649 10.4443 5.6853C8.79981 6.78412 7.51808 8.3459 6.7612 10.1732C6.00433 12.0004 5.80629 14.0111 6.19215 15.9509C6.578 17.8907 7.53041 19.6725 8.92893 21.0711C10.3275 22.4696 12.1093 23.422 14.0491 23.8079C15.9889 24.1937 17.9996 23.9957 19.8268 23.2388C21.6541 22.4819 23.2159 21.2002 24.3147 19.5557C25.4135 17.9112 26 15.9778 26 14C26 11.3478 24.9464 8.8043 23.0711 6.92893C21.1957 5.05357 18.6522 4 16 4Z" fill="#256CCB"/>
</g>
</g>
</svg>
