<svg width="89" height="88" viewBox="0 0 89 88" fill="none" xmlns="http://www.w3.org/2000/svg">
<path opacity="0.08" d="M74.3223 1.36972C79.107 4.85107 79.2864 15.7153 79.9443 23.9385C80.5424 32.1016 81.619 37.6838 84.0114 44.6465C86.4037 51.6092 90.1119 59.9525 88.0784 65.6547C86.0449 71.4169 78.2099 74.4781 70.973 78.9798C63.7959 83.4216 57.2169 89.3038 51.535 87.7432C45.7933 86.2427 41.0086 77.2992 32.8745 73.3377C24.7405 69.4361 13.3169 70.4565 6.91736 66.3149C0.517782 62.1133 -0.79802 52.6896 2.19244 45.0067C5.1829 37.3237 12.4198 31.3213 18.2811 26.1593C24.0826 20.9373 28.3889 16.5556 33.5324 13.2543C38.676 10.0131 44.6569 7.85224 52.3723 4.79105C60.0877 1.78989 69.5376 -2.11163 74.3223 1.36972Z" fill="#03FF86"/>
<g clip-path="url(#clip0_887_1151)">
<path d="M37.059 26.589C37.2062 26.7325 37.2735 26.9394 37.2387 27.1421L36.4035 32.0116C36.049 33.8787 38.134 35.6511 40.0307 34.6469L44.4037 32.3477C44.5858 32.2521 44.8032 32.2519 44.9853 32.3477L49.3585 34.6469C51.0303 35.6 53.3576 34.0521 52.9857 32.0116L52.1505 27.1421C52.1157 26.9394 52.1828 26.7326 52.3302 26.589L55.8681 23.1403C56.5545 22.4711 56.7968 21.4893 56.5007 20.5776C56.2045 19.666 55.4312 19.014 54.4826 18.8762L49.5931 18.1658C49.3897 18.1363 49.2138 18.0084 49.1227 17.824L46.9363 13.3935C46.5121 12.534 45.6531 12 44.6946 12C43.7361 12 42.8771 12.534 42.4528 13.3935L40.2663 17.8239C40.1752 18.0085 39.9993 18.1363 39.7957 18.1658L34.9063 18.8762C32.977 19.0921 32.0286 21.7085 33.521 23.1404L37.059 26.589ZM34.6716 21.1571C34.7077 21.046 34.8291 20.7821 35.1761 20.7317L40.0652 20.0212C40.8796 19.9031 41.5833 19.392 41.9477 18.6539L44.1342 14.2235C44.2893 13.909 44.5777 13.8751 44.6946 13.8751C44.8115 13.8751 45.0998 13.909 45.255 14.2235L47.4416 18.654C47.806 19.392 48.5096 19.9031 49.3238 20.0212L54.2131 20.7317C54.5601 20.7821 54.6816 21.0461 54.7176 21.1571C54.7536 21.2681 54.8106 21.553 54.5595 21.7976L51.0216 25.2463C50.4323 25.8206 50.1635 26.6479 50.3026 27.459L51.1378 32.3285C51.1971 32.6741 50.9837 32.8711 50.8892 32.9398C50.7947 33.0084 50.5416 33.1504 50.2311 32.9872L45.858 30.6881C45.1296 30.3053 44.2598 30.3053 43.5313 30.6881L39.1582 32.9872C38.8478 33.1507 38.5946 33.0084 38.5001 32.9398C38.4056 32.8711 38.1922 32.6741 38.2515 32.3285L39.0867 27.459C39.2258 26.6479 38.957 25.8206 38.3677 25.2463L34.8298 21.7978C34.5787 21.553 34.6356 21.2683 34.6716 21.1571Z" fill="#256CCB"/>
<path d="M55.4531 29.3744C55.2097 30.1231 55.4088 30.9299 55.9727 31.4796L58.5 33.943C58.5421 33.9841 58.5613 34.0432 58.5515 34.1012L57.9548 37.5799C57.645 39.115 59.397 40.5401 60.9346 39.7446L64.0585 38.1022C64.1106 38.0749 64.1728 38.0749 64.2248 38.1022L67.3487 39.7446C68.5885 40.5094 70.6776 39.3001 70.3285 37.5799L69.7318 34.1012C69.7218 34.0432 69.7412 33.984 69.7832 33.9431L72.3107 31.4795C73.4503 30.4467 72.8837 28.2077 71.1725 27.9767L67.6798 27.4692C67.6217 27.4609 67.5713 27.4242 67.5453 27.3715L65.9833 24.2067C65.3127 22.7915 63.156 22.647 62.3002 24.2066L60.7383 27.3714C60.7123 27.4242 60.662 27.4609 60.6038 27.4692L57.1111 27.9767C56.3316 28.09 55.6963 28.6255 55.4531 29.3744ZM57.2363 29.9537C57.2591 29.8836 57.3076 29.8427 57.3805 29.8321L60.8732 29.3246C61.5421 29.2274 62.1201 28.8074 62.4195 28.2012L63.9815 25.0364C64.0141 24.9704 64.068 24.9367 64.1416 24.9367C64.2152 24.9367 64.2691 24.9702 64.3017 25.0362L65.8638 28.2014C66.1631 28.8075 66.7411 29.2274 67.4101 29.3246L70.9027 29.8321C70.9756 29.8427 71.0242 29.8836 71.047 29.9537C71.0697 30.0239 71.0546 30.0855 71.0018 30.1369L68.4742 32.6006C67.9902 33.0725 67.7696 33.752 67.8837 34.4181L68.4803 37.8969C68.4928 37.9694 68.469 38.0282 68.4093 38.0714C68.3497 38.1147 68.2865 38.1192 68.2212 38.0849L65.0971 36.4425C64.4988 36.128 63.7845 36.128 63.186 36.4425L60.062 38.0849C59.9967 38.119 59.9335 38.1146 59.8738 38.0714C59.8142 38.0281 59.7903 37.9694 59.8028 37.8967L60.3995 34.4181C60.5137 33.7519 60.2928 33.0724 59.8088 32.6004L57.2816 30.137C57.2287 30.0854 57.2135 30.0237 57.2363 29.9537Z" fill="#256CCB"/>
<path d="M19.4808 33.9441C19.523 33.9852 19.5422 34.0443 19.5323 34.1023L18.9357 37.581C18.6758 39.0918 20.2841 40.5717 21.9155 39.7457L25.0393 38.1033C25.0915 38.076 25.1537 38.076 25.2057 38.1033L28.3297 39.7457C29.6641 40.5103 31.6185 39.2798 31.3095 37.581L30.7128 34.1022C30.7028 34.0443 30.7221 33.9852 30.7642 33.9442L33.2913 31.4806C34.431 30.4478 33.8643 28.2088 32.1531 27.9778L28.6606 27.4703C28.6023 27.462 28.552 27.4253 28.526 27.3726L26.964 24.2077C26.3191 22.783 24.0331 22.6628 23.2808 24.2077L21.7188 27.3725C21.6928 27.4253 21.6425 27.462 21.5843 27.4703L18.0916 27.9778C16.5358 28.1576 15.7217 30.2642 16.9535 31.4807L19.4808 33.9441ZM18.2171 29.9548C18.2398 29.8847 18.2883 29.8438 18.3612 29.8332L21.854 29.3257C22.5228 29.2285 23.1008 28.8085 23.4002 28.2023L24.9622 25.0373C24.9948 24.9713 25.0487 24.9378 25.1223 24.9378C25.196 24.9378 25.25 24.9713 25.2825 25.0375L26.8445 28.2025C27.1437 28.8086 27.7217 29.2285 28.3907 29.3257L31.8833 29.8332C31.9562 29.8438 32.0048 29.8847 32.0276 29.9548C32.0503 30.025 32.0352 30.0866 31.9825 30.138L29.455 32.6016C28.9708 33.0735 28.7501 33.7531 28.8645 34.4192L29.4611 37.8978C29.4736 37.9705 29.4496 38.0293 29.3901 38.0725C29.3306 38.1158 29.2672 38.1203 29.202 38.086L26.078 36.4436C25.4796 36.1291 24.7652 36.1291 24.1667 36.4436L21.0427 38.086C20.9776 38.1203 20.9142 38.1157 20.8547 38.0725C20.7952 38.0292 20.7712 37.9705 20.7837 37.8978L21.3803 34.4193C21.4947 33.7531 21.2738 33.0735 20.7897 32.6015L18.2625 30.1381C18.2096 30.0865 18.1943 30.0248 18.2171 29.9548Z" fill="#256CCB"/>
<path d="M42.619 27.2002C43.0438 27.4732 43.3877 27.6147 43.7571 27.6852V27.9771C43.7571 28.4905 44.1526 28.9381 44.6657 28.9535C45.1966 28.9695 45.6321 28.5439 45.6321 28.0164V27.5527C46.4378 27.2217 47.046 26.497 47.1977 25.593C47.3946 24.4206 46.76 23.3621 45.6185 22.9591C45.4287 22.882 45.1535 22.8326 44.5523 22.607C44.387 22.526 44.2913 22.3429 44.3316 22.1631C44.351 22.0882 44.4041 21.9404 44.6093 21.8004C44.8907 21.6565 45.2396 21.9512 45.2548 21.9639C45.6757 22.3114 46.309 22.2296 46.6252 21.7705C46.9123 21.3537 46.7907 20.7841 46.392 20.4725C46.1756 20.3034 45.917 20.1532 45.6321 20.0462V19.777C45.6321 19.2636 45.2366 18.816 44.7235 18.8006C44.1926 18.7846 43.7571 19.2102 43.7571 19.7377V20.1241C43.7523 20.1265 43.7476 20.1282 43.7428 20.1306C43.0961 20.4612 42.64 21.0706 42.4915 21.8027C42.3535 22.483 42.5108 23.1749 42.9123 23.6532C43.4858 24.3027 44.1507 24.4681 44.9943 24.7271C45.0988 24.764 45.4168 24.8762 45.3487 25.2822C45.3121 25.5005 45.1238 25.8705 44.6508 25.8736C44.1096 25.877 43.9947 25.8594 43.6068 25.606C43.143 25.3031 42.5102 25.4636 42.2542 25.9741C42.0365 26.4082 42.2103 26.9377 42.619 27.2002Z" fill="#256CCB"/>
<path d="M72.4509 67.0978L67.7294 65.1523V63.3258C69.3095 61.7659 70.635 59.1059 70.8645 56.9062C72.4666 52.7872 70.7319 49.3097 68.9567 47.6909C69.4549 44.8922 67.1016 42.0696 64.2079 42.1256C61.3311 42.1333 58.994 44.7278 59.4564 47.6751C58.4046 48.5898 57.5455 49.9849 57.1081 51.5173C56.5481 53.4793 56.7221 55.4901 57.5921 57.2021C57.9182 59.3504 59.1246 61.7388 60.6885 63.3218V65.1524L56.9525 66.6919C56.5171 66.1529 55.9637 65.7057 55.3176 65.4002C54.8496 65.1789 54.2907 65.3788 54.0694 65.8468C53.848 66.3149 54.048 66.8738 54.516 67.0952C55.495 67.5582 56.1276 68.5574 56.1276 69.6409V74.1252H45.6311V69.4012C46.601 69.3677 47.3795 68.5684 47.3795 67.5907V65.0548C47.6589 64.8881 47.9226 64.6937 48.1686 64.4758L50.5157 65.4431C50.8587 65.5737 51.4556 65.5123 51.7397 64.9334C51.9371 64.4547 51.7089 63.9067 51.2301 63.7094L48.8856 62.7433V59.1886C51.0831 57.3697 52.3865 54.4147 52.7932 51.2348C53.8894 49.3892 55.6974 44.5447 52.5169 41.3243C51.2057 39.9969 49.3495 39.7378 47.8379 40.0506C46.6187 37.3789 42.599 37.0581 39.1991 39.0461C38.7536 39.3098 38.6064 39.8849 38.8702 40.3304C39.134 40.7758 39.7092 40.9232 40.1546 40.6593C42.8424 39.1886 45.6624 39.2169 46.224 41.1287L45.0226 44.3346C44.3591 45.0714 43.5209 45.6406 42.5851 45.9811C40.2647 46.8256 38.6966 48.1732 37.7721 49.1847C37.305 47.6508 37.0565 45.3552 37.7579 43.4463C37.9364 42.9602 37.6872 42.4216 37.2011 42.2429C36.7154 42.0646 36.1765 42.3137 35.9979 42.7996C34.9094 45.7623 35.6195 49.4646 36.5959 51.2422C37.0262 54.4089 38.1834 57.2121 40.5039 59.1901V62.7434L34.2911 65.3033C33.539 65.6132 32.9016 66.1017 32.4164 66.7067L28.6446 65.1524V63.1089C30.42 61.1703 31.8815 57.6092 31.8361 55.2204C31.8361 50.8651 29.3266 48.2648 25.1232 48.2648C23.4585 48.2648 22.0514 48.6714 20.9414 49.4732C20.5216 49.7764 20.4271 50.3624 20.7304 50.7822C21.0336 51.2019 21.6196 51.2964 22.0392 50.9932C22.8231 50.4269 23.8607 50.1398 25.1232 50.1398C29.1217 50.1398 29.9611 52.9027 29.9611 55.2204C30.1041 57.6112 27.5457 62.9874 25.1232 63.2277C22.2744 62.6928 19.8082 56.9872 20.3516 54.1573C20.4189 53.6439 20.0572 53.1732 19.5439 53.1059C19.0306 53.0401 18.5599 53.4003 18.4925 53.9137C18.0564 56.8803 19.3974 60.5484 21.6036 63.1099V65.1522L16.8821 67.0977C15.3532 67.7276 14.3652 69.2032 14.3652 70.8568V73.8112C14.3652 75.0181 15.3471 76.0001 16.554 76.0001H72.779C73.9859 76.0001 74.9677 75.0182 74.9677 73.8112V70.8568C74.9676 69.2033 73.9797 67.7277 72.4509 67.0978ZM51.1827 42.6418C53.0944 44.5773 52.4275 47.5303 51.6721 49.2969C50.9881 48.6071 49.9662 47.6848 48.7132 46.8828C47.8644 46.3393 47.1974 45.6008 46.8422 44.8216L47.9125 41.9657C48.8146 41.7062 50.2476 41.6951 51.1827 42.6418ZM38.491 51.2713C38.9241 50.6482 40.4152 48.7659 43.2261 47.7429C44.0832 47.4309 44.8789 46.9728 45.5774 46.3956C46.098 47.1886 46.8231 47.8989 47.7024 48.4618C49.244 49.4487 50.415 50.6691 50.9036 51.2168C50.3871 54.9198 48.2506 58.8234 44.6935 58.8234C41.1559 58.8234 39.0201 54.9536 38.491 51.2713ZM44.6935 60.6984C45.503 60.6984 46.2784 60.5547 47.0105 60.2764V62.9967C45.849 64.1596 43.6631 64.2374 42.3787 62.9974V60.2773C43.1102 60.5551 43.8849 60.6984 44.6935 60.6984ZM31.3869 74.1252H29.5139L31.3867 71.4624L31.3869 74.1252ZM21.6035 72.1004L18.9204 68.2859L21.6035 67.1804V72.1004ZM23.4785 68.8253C24.3911 69.2093 25.663 69.2753 26.7695 68.8252V74.1252H23.4785V68.8253ZM28.6445 67.1803L31.3286 68.2863L28.6445 72.1024V67.1803ZM26.7695 64.6522V66.6493C25.9515 67.4083 24.4452 67.5063 23.4785 66.6487C23.4785 66.1712 23.4785 65.1634 23.4785 64.6528C24.4662 65.1667 25.5702 65.3008 26.7695 64.6522ZM16.2401 73.8113V70.8569C16.2401 70.1292 16.5954 69.4658 17.1742 69.0622L20.7354 74.1252H16.5539C16.3809 74.1252 16.2401 73.9844 16.2401 73.8113ZM33.2619 69.6408C33.2619 68.4953 33.9462 67.4731 35.0052 67.0368L41.2206 64.4758C42.3644 65.4381 43.8405 65.9848 45.5044 65.7313V67.5283C44.5345 67.5618 43.756 68.3611 43.756 69.3389V74.1252H33.2619V69.6408ZM64.2079 44.0004C65.6934 44.0004 66.9237 45.1099 67.116 46.5436C65.312 45.8064 63.1462 45.8142 61.2967 46.5674C61.4784 45.1223 62.7141 44.0004 64.2079 44.0004ZM60.9886 48.8524C61.8551 48.2449 63.0659 47.8706 64.3017 47.8706C65.3896 47.8706 66.4971 48.1606 67.4066 48.8371C68.3394 49.5309 70.3517 51.9943 69.3655 55.4929C68.549 54.8953 67.423 53.3401 66.6906 51.9133C66.5481 51.6351 66.2762 51.4466 65.9659 51.4099C65.6556 51.3733 65.3471 51.4942 65.1437 51.7313C64.2091 52.8227 61.4335 55.5239 59.0664 55.9253C57.9437 53.1468 59.348 50.0028 60.9886 48.8524ZM59.6097 57.7267C62.0531 57.2053 64.4242 55.1459 65.6707 53.9052C66.2852 55.0102 67.9015 57.0086 68.89 57.3718C68.2514 60.4296 65.8195 63.2277 64.2077 63.2277C62.6957 63.2277 60.3621 60.6253 59.6097 57.7267ZM64.2079 65.1027C64.742 65.1027 65.2979 64.9637 65.8542 64.6998C65.8544 64.6932 65.8541 65.7131 65.8544 65.7929C65.8886 67.2431 65.2714 68.8691 64.211 69.9859C63.2235 68.9623 62.5432 67.3454 62.5629 65.8344C62.5636 65.7854 62.563 64.8632 62.5631 64.7027C63.1016 64.9582 63.6546 65.1027 64.2079 65.1027ZM60.7914 67.1378C61.0252 68.5609 61.6499 69.8997 62.6086 71.0008L63.2714 71.7621V74.1252H58.0025V69.6408C58.0025 69.2024 57.9392 68.7726 57.8216 68.3616L60.7914 67.1378ZM73.0926 73.8113C73.0926 73.9844 72.9519 74.1252 72.7789 74.1252H65.1462V71.7624L65.7867 71.0333C66.7611 69.9239 67.3935 68.5749 67.6279 67.1386L71.7366 68.8316C72.5604 69.1709 73.0927 69.9659 73.0927 70.8571L73.0926 73.8113Z" fill="#256CCB"/>
<path d="M49.2444 70.3614C48.7266 70.3614 48.3069 70.781 48.3069 71.2989C48.3069 71.8168 48.7266 72.2364 49.2444 72.2364H52.7855C53.3033 72.2364 53.723 71.8168 53.723 71.2989C53.723 70.781 53.3033 70.3614 52.7855 70.3614H49.2444Z" fill="#256CCB"/>
</g>
<defs>
<clipPath id="clip0_887_1151">
<rect width="64" height="64" fill="white" transform="translate(12.666 12)"/>
</clipPath>
</defs>
</svg>
