<svg width="64" height="64" viewBox="0 0 64 64" fill="none" xmlns="http://www.w3.org/2000/svg">
<g id="icon">
<g id="shape">
<path d="M12.7129 42V40H8.77539V42C8.77539 45.713 10.2273 49.274 12.8118 51.8995C15.3963 54.525 18.9016 56 22.5566 56H28.4629V52H22.5566C19.9459 52 17.4421 50.9464 15.5961 49.0711C13.75 47.1957 12.7129 44.6522 12.7129 42Z" fill="#256CCB"/>
<path d="M48.1504 22V24H52.0879V22C52.0879 18.287 50.6359 14.726 48.0515 12.1005C45.467 9.475 41.9617 8 38.3066 8H32.4004V12H38.3066C39.5993 12 40.8794 12.2587 42.0737 12.7612C43.268 13.2638 44.3531 14.0004 45.2672 14.9289C46.1813 15.8575 46.9064 16.9599 47.4011 18.1732C47.8958 19.3864 48.1504 20.6868 48.1504 22Z" fill="#256CCB"/>
<path d="M22.5566 22H10.7441C9.17771 22 7.67543 22.6321 6.56779 23.7574C5.46015 24.8826 4.83789 26.4087 4.83789 28V32H8.77539V28C8.77539 27.4696 8.98281 26.9609 9.35202 26.5858C9.72124 26.2107 10.222 26 10.7441 26H22.5566C23.0788 26 23.5795 26.2107 23.9488 26.5858C24.318 26.9609 24.5254 27.4696 24.5254 28V32H28.4629V28C28.4629 26.4087 27.8406 24.8826 26.733 23.7574C25.6254 22.6321 24.1231 22 22.5566 22Z" fill="#256CCB"/>
<path d="M16.6504 20C18.2079 20 19.7305 19.5308 21.0255 18.6518C22.3205 17.7727 23.3299 16.5233 23.9259 15.0615C24.522 13.5997 24.6779 11.9911 24.3741 10.4393C24.0702 8.88743 23.3202 7.46197 22.2189 6.34315C21.1175 5.22433 19.7143 4.4624 18.1867 4.15372C16.6591 3.84504 15.0757 4.00347 13.6368 4.60897C12.1978 5.21447 10.9679 6.23985 10.1026 7.55544C9.23725 8.87103 8.77539 10.4178 8.77539 12C8.77539 14.1217 9.60508 16.1566 11.0819 17.6569C12.5588 19.1571 14.5618 20 16.6504 20ZM16.6504 8C17.4292 8 18.1904 8.2346 18.8379 8.67413C19.4855 9.11365 19.9901 9.73837 20.2882 10.4693C20.5862 11.2002 20.6642 12.0044 20.5122 12.7804C20.3603 13.5563 19.9853 14.269 19.4346 14.8284C18.884 15.3878 18.1824 15.7688 17.4186 15.9231C16.6548 16.0775 15.8631 15.9983 15.1436 15.6955C14.4241 15.3928 13.8091 14.8801 13.3765 14.2223C12.9438 13.5645 12.7129 12.7911 12.7129 12C12.7129 10.9391 13.1277 9.92172 13.8662 9.17158C14.6046 8.42143 15.6061 8 16.6504 8Z" fill="#256CCB"/>
<path d="M54.0566 50H42.2441C40.6777 50 39.1754 50.6321 38.0678 51.7574C36.9602 52.8826 36.3379 54.4087 36.3379 56V60H40.2754V56C40.2754 55.4696 40.4828 54.9609 40.852 54.5858C41.2212 54.2107 41.722 54 42.2441 54H54.0566C54.5788 54 55.0795 54.2107 55.4488 54.5858C55.818 54.9609 56.0254 55.4696 56.0254 56V60H59.9629V56C59.9629 54.4087 59.3406 52.8826 58.233 51.7574C57.1254 50.6321 55.6231 50 54.0566 50Z" fill="#256CCB"/>
<path d="M40.2754 40C40.2754 41.5823 40.7373 43.129 41.6026 44.4446C42.4679 45.7602 43.6978 46.7855 45.1368 47.391C46.5757 47.9965 48.1591 48.155 49.6867 47.8463C51.2143 47.5376 52.6175 46.7757 53.7189 45.6569C54.8202 44.538 55.5702 43.1126 55.8741 41.5607C56.1779 40.0089 56.022 38.4003 55.4259 36.9385C54.8299 35.4767 53.8205 34.2273 52.5255 33.3482C51.2305 32.4692 49.7079 32 48.1504 32C46.0618 32 44.0588 32.8429 42.5819 34.3432C41.1051 35.8434 40.2754 37.8783 40.2754 40ZM52.0879 40C52.0879 40.7911 51.857 41.5645 51.4243 42.2223C50.9916 42.8801 50.3767 43.3928 49.6572 43.6955C48.9377 43.9983 48.146 44.0775 47.3822 43.9231C46.6184 43.7688 45.9168 43.3878 45.3662 42.8284C44.8155 42.269 44.4405 41.5563 44.2885 40.7804C44.1366 40.0044 44.2146 39.2002 44.5126 38.4693C44.8106 37.7384 45.3153 37.1137 45.9628 36.6741C46.6104 36.2346 47.3716 36 48.1504 36C49.1947 36 50.1962 36.4214 50.9346 37.1716C51.673 37.9217 52.0879 38.9391 52.0879 40Z" fill="#256CCB"/>
</g>
</g>
</svg>
