<svg width="89" height="88" viewBox="0 0 89 88" fill="none" xmlns="http://www.w3.org/2000/svg">
<path opacity="0.08" d="M87.693 21.1216C91.5098 35.9068 77.683 58.1304 61.4076 72.4564C45.0602 86.6905 26.1923 93.2107 14.1658 83.109C2.13926 73.0992 -3.04581 46.4676 2.64337 28.4683C8.26054 10.469 24.752 1.10197 43.6199 0.0918052C62.5598 -0.91836 83.9483 6.4283 87.693 21.1216Z" fill="#03FF86"/>
<path d="M63.2215 15.4831H32.2408C31.7229 15.4831 31.3033 15.9028 31.3033 16.4206C31.3033 16.9383 31.7229 17.358 32.2408 17.358H63.2216C63.7395 17.358 64.1591 16.9383 64.1591 16.4206C64.1591 15.9028 63.7394 15.4831 63.2215 15.4831Z" fill="#256CCB"/>
<path d="M38.7554 47.191C38.7554 45.9678 37.7602 44.9725 36.537 44.9725H27.2609C26.0376 44.9725 25.0424 45.9676 25.0424 47.191V54.4456C25.0424 55.6689 26.0376 56.6641 27.2609 56.6641H36.537C37.7602 56.6641 38.7554 55.669 38.7554 54.4456V47.191ZM36.8804 54.4456C36.8804 54.635 36.7264 54.7891 36.537 54.7891H27.2609C27.0714 54.7891 26.9174 54.6351 26.9174 54.4456V47.191C26.9174 47.0016 27.0714 46.8475 27.2609 46.8475H36.537C36.7264 46.8475 36.8804 47.0015 36.8804 47.191V54.4456Z" fill="#256CCB"/>
<path d="M36.537 59.0048H27.2609C26.0376 59.0048 25.0424 60 25.0424 61.2233V68.4779C25.0424 69.7012 26.0376 70.6964 27.2609 70.6964H36.537C37.7602 70.6964 38.7554 69.7012 38.7554 68.4779V61.2233C38.7554 59.9999 37.7602 59.0048 36.537 59.0048ZM36.8804 68.4778C36.8804 68.6672 36.7264 68.8213 36.537 68.8213H27.2609C27.0714 68.8213 26.9174 68.6672 26.9174 68.4778V61.2232C26.9174 61.0338 27.0714 60.8797 27.2609 60.8797H36.537C36.7264 60.8797 36.8804 61.0338 36.8804 61.2232V68.4778Z" fill="#256CCB"/>
<path d="M61.7972 46.1808H42.2257C41.7078 46.1808 41.2882 46.6006 41.2882 47.1183C41.2882 47.6361 41.7078 48.0558 42.2257 48.0558H61.7972C62.3151 48.0558 62.7347 47.6361 62.7347 47.1183C62.7347 46.6006 62.3149 46.1808 61.7972 46.1808Z" fill="#256CCB"/>
<path d="M61.7972 49.8806H42.2257C41.7078 49.8806 41.2882 50.3004 41.2882 50.8181C41.2882 51.3359 41.7078 51.7556 42.2257 51.7556H61.7972C62.3151 51.7556 62.7347 51.3359 62.7347 50.8181C62.7347 50.3004 62.3149 49.8806 61.7972 49.8806Z" fill="#256CCB"/>
<path d="M61.7972 53.5809H42.2257C41.7078 53.5809 41.2882 54.0006 41.2882 54.5184C41.2882 55.0361 41.7078 55.4559 42.2257 55.4559H61.7972C62.3151 55.4559 62.7347 55.0361 62.7347 54.5184C62.7347 54.0006 62.3149 53.5809 61.7972 53.5809Z" fill="#256CCB"/>
<path d="M61.7972 60.213H42.2257C41.7078 60.213 41.2882 60.6327 41.2882 61.1505C41.2882 61.6682 41.7078 62.088 42.2257 62.088H61.7972C62.3151 62.088 62.7347 61.6682 62.7347 61.1505C62.7347 60.6327 62.3149 60.213 61.7972 60.213Z" fill="#256CCB"/>
<path d="M61.7972 63.9132H42.2257C41.7078 63.9132 41.2882 64.333 41.2882 64.8507C41.2882 65.3685 41.7078 65.7882 42.2257 65.7882H61.7972C62.3151 65.7882 62.7347 65.3685 62.7347 64.8507C62.7347 64.333 62.3149 63.9132 61.7972 63.9132Z" fill="#256CCB"/>
<path d="M61.7972 67.613H42.2257C41.7078 67.613 41.2882 68.0328 41.2882 68.5505C41.2882 69.0683 41.7078 69.488 42.2257 69.488H61.7972C62.3151 69.488 62.7347 69.0683 62.7347 68.5505C62.7347 68.0328 62.3149 67.613 61.7972 67.613Z" fill="#256CCB"/>
<path d="M33.1239 49.0215L31.519 50.6265L30.6738 49.7813C30.3075 49.4152 29.714 49.4152 29.3479 49.7813C28.9818 50.1474 28.9818 50.741 29.3479 51.107L30.856 52.6152C31.222 52.981 31.8156 52.9813 32.1819 52.6152L34.4498 50.3473C34.8159 49.9812 34.8159 49.3875 34.4498 49.0215C34.0837 48.6555 33.4902 48.6555 33.1239 49.0215Z" fill="#256CCB"/>
<path d="M33.1238 63.0539L31.5189 64.6589L30.6735 63.8136C30.3075 63.4474 29.7139 63.4475 29.3478 63.8136C28.9817 64.1798 28.9817 64.7734 29.3479 65.1394L30.856 66.6475C31.2218 67.0135 31.8154 67.0138 32.1818 66.6475L34.4497 64.3796C34.8158 64.0135 34.8158 63.4199 34.4497 63.0539C34.0835 62.6878 33.49 62.6878 33.1238 63.0539Z" fill="#256CCB"/>
<path d="M44.3333 42.1341C49.6762 42.1341 53.9999 37.7793 53.9999 32.4675C53.9999 28.057 51.0207 24.2078 46.7551 23.107C46.2533 22.9777 45.7422 23.2792 45.6131 23.7805C45.4837 24.2818 45.7852 24.7931 46.2866 24.9225C49.7241 25.8096 52.1249 28.9121 52.1249 32.4673C52.1249 34.0392 51.6556 35.5027 50.8517 36.7282V36.7058C50.8517 34.8648 49.5108 33.3321 47.7547 33.0303C48.2012 32.3708 48.4622 31.576 48.4622 30.7213C48.4622 28.4446 46.6099 26.5922 44.3332 26.5922C42.0563 26.5922 40.204 28.4445 40.204 30.7213C40.204 31.576 40.465 32.3708 40.9115 33.0303C39.1554 33.3322 37.8145 34.865 37.8145 36.7058V36.7282C37.0108 35.5027 36.5413 34.0392 36.5413 32.4673C36.5413 28.9121 38.9422 25.8095 42.3798 24.9225C42.8812 24.7931 43.1827 24.2818 43.0533 23.7805C42.924 23.2792 42.4124 22.9776 41.9113 23.107C37.6455 24.2078 34.6663 28.057 34.6663 32.4675C34.6665 37.7653 38.9718 42.1341 44.3333 42.1341ZM44.3333 28.4675C45.5762 28.4675 46.5873 29.4786 46.5873 30.7216C46.5873 31.9646 45.5762 32.9757 44.3333 32.9757C43.0904 32.9757 42.0792 31.9646 42.0792 30.7216C42.0792 29.4786 43.0904 28.4675 44.3333 28.4675ZM39.6898 36.706C39.6898 35.6828 40.5222 34.8506 41.5453 34.8506H47.1214C48.1446 34.8506 48.9768 35.683 48.9768 36.706V38.7201C47.5854 39.7561 45.9356 40.2591 44.3334 40.2591C42.7278 40.2591 41.077 39.753 39.6899 38.7201L39.6898 36.706Z" fill="#256CCB"/>
<path d="M19.8506 15.3407V72.6593C19.8506 74.5014 21.3492 76 23.1913 76H65.475C67.3172 76 68.8159 74.5014 68.8159 72.6593V46.1875C68.8159 45.6697 68.3963 45.25 67.8784 45.25C67.3605 45.25 66.9409 45.6697 66.9409 46.1875V72.6593C66.9409 73.4675 66.2833 74.125 65.475 74.125H23.1912C22.383 74.125 21.7255 73.4675 21.7255 72.6593V20.8407H66.9407V41.8125C66.9407 42.3303 67.3603 42.75 67.8781 42.75C68.396 42.75 68.8156 42.3303 68.8156 41.8125V15.3407C68.8156 13.4986 67.317 12 65.4749 12H23.1912C21.3492 12 19.8506 13.4986 19.8506 15.3407ZM28.6049 13.875H65.4749C66.2832 13.875 66.9408 14.5325 66.9408 15.3407V18.9657H28.6049V13.875ZM26.7299 18.9657H21.7256V15.3407C21.7256 14.5325 22.383 13.875 23.1912 13.875H26.7299V18.9657Z" fill="#256CCB"/>
</svg>
