<svg width="88" height="88" viewBox="0 0 88 88" fill="none" xmlns="http://www.w3.org/2000/svg">
<path opacity="0.08" d="M70.3059 0.631649C75.0962 3.28898 75.3045 15.0572 75.7905 23.9403C76.3459 32.8234 77.179 38.8973 80.3031 46.9452C83.4272 54.9932 88.9118 65.0151 87.8704 72.9871C86.8985 80.9591 79.47 86.9571 71.4861 87.8682C63.5717 88.7793 55.1018 84.6794 46.8402 84.3757C38.5787 84.072 30.4559 87.5645 23.0969 86.3497C15.6684 85.059 9.00361 79.061 4.76868 71.3168C0.533758 63.6485 -1.20187 54.3098 0.880884 46.2619C2.96363 38.2899 8.86476 31.5327 13.5857 24.7754C18.2371 17.9423 21.7084 11.1091 27.0541 8.7555C32.3304 6.40186 39.5506 8.67958 47.8122 6.55371C56.0738 4.42785 65.5156 -2.02569 70.3059 0.631649Z" fill="#03FF86"/>
<path d="M70.7072 24.2928L60.7072 14.2928C60.5196 14.1053 60.2653 14 60 14H35C33.9395 14.0012 32.9228 14.423 32.173 15.1729C31.4231 15.9228 31.0013 16.9395 31 18V47H33V18C33.0006 17.4698 33.2116 16.9614 33.5865 16.5865C33.9614 16.2115 34.4698 16.0006 35 16H59V22C59.0013 23.0605 59.4231 24.0772 60.173 24.8271C60.9228 25.577 61.9395 25.9988 63 26H69V70C68.9994 70.5302 68.7885 71.0386 68.4136 71.4135C68.0386 71.7885 67.5303 71.9994 67 72H35C34.5082 72.0004 34.0335 71.8191 33.667 71.491L32.333 72.9812C33.0661 73.6378 34.0159 74.0006 35 74H67C68.0605 73.9988 69.0772 73.577 69.8271 72.8271C70.577 72.0772 70.9988 71.0605 71 70V25C71 24.7348 70.8947 24.4804 70.7072 24.2928ZM61 22V17.4142L67.5859 24H63C62.4698 23.9994 61.9614 23.7885 61.5865 23.4135C61.2116 23.0386 61.0006 22.5302 61 22Z" fill="#256CCB"/>
<path d="M35 18H39V20H35V18Z" fill="#256CCB"/>
<path d="M41 18H48V20H41V18Z" fill="#256CCB"/>
<path d="M35 22H41V24H35V22Z" fill="#256CCB"/>
<path d="M35 28H42V30H35V28Z" fill="#256CCB"/>
<path d="M44 28H52V30H44V28Z" fill="#256CCB"/>
<path d="M35 32H44V34H35V32Z" fill="#256CCB"/>
<path d="M40 36H50V38H40V36Z" fill="#256CCB"/>
<path d="M52 36H61V38H52V36Z" fill="#256CCB"/>
<path d="M63 36H67V38H63V36Z" fill="#256CCB"/>
<path d="M35 40H45V42H35V40Z" fill="#256CCB"/>
<path d="M47 40H56V42H47V40Z" fill="#256CCB"/>
<path d="M58 40H67V42H58V40Z" fill="#256CCB"/>
<path d="M35 44H50V46H35V44Z" fill="#256CCB"/>
<path d="M52 44H61V46H52V44Z" fill="#256CCB"/>
<path d="M63 44H67V46H63V44Z" fill="#256CCB"/>
<path d="M41 63C40.7348 63 40.4805 63.1054 40.2929 63.2929C40.1054 63.4804 40.0001 63.7348 40 64V70C40.0001 70.2652 40.1054 70.5196 40.2929 70.7071C40.4805 70.8946 40.7348 71 41 71H47C47.2653 71 47.5196 70.8946 47.7071 70.7071C47.8947 70.5196 48 70.2652 48 70V64C48 63.7348 47.8947 63.4804 47.7071 63.2929C47.5196 63.1054 47.2653 63 47 63H41ZM46 69H42V65H46V69Z" fill="#256CCB"/>
<path d="M50 70C50 70.2652 50.1054 70.5196 50.2929 70.7071C50.4805 70.8946 50.7348 71 51 71H57C57.2653 71 57.5196 70.8946 57.7071 70.7071C57.8947 70.5196 58 70.2652 58 70V59C58 58.7348 57.8947 58.4804 57.7071 58.2929C57.5196 58.1054 57.2653 58 57 58H51C50.7348 58 50.4805 58.1054 50.2929 58.2929C50.1054 58.4804 50 58.7348 50 59V70ZM52 60H56V69H52V60Z" fill="#256CCB"/>
<path d="M61 71H67C67.2653 71 67.5196 70.8946 67.7071 70.7071C67.8947 70.5196 68 70.2652 68 70V55C68 54.7348 67.8947 54.4804 67.7071 54.2929C67.5196 54.1054 67.2653 54 67 54H61C60.7348 54 60.4805 54.1054 60.2929 54.2929C60.1054 54.4804 60 54.7348 60 55V70C60 70.2652 60.1054 70.5196 60.2929 70.7071C60.4805 70.8946 60.7348 71 61 71ZM62 56H66V69H62V56Z" fill="#256CCB"/>
<path d="M19 59.9991C19.0028 57.6867 19.8945 55.4638 21.4907 53.7905C23.0868 52.1173 25.2652 51.1217 27.575 51.0099L26.2929 52.292L27.7072 53.7063L30.7072 50.7063C30.8947 50.5187 31 50.2644 31 49.9991C31 49.7339 30.8947 49.4796 30.7072 49.292L27.7072 46.292L26.2929 47.7063L27.594 49.0074C25.2089 49.0957 22.9173 49.9572 21.0647 51.4621C19.2122 52.9669 17.8993 55.0334 17.3242 57.3498C16.749 59.6662 16.9429 62.1068 17.8764 64.3034C18.8099 66.5 20.4325 68.3334 22.4993 69.527L23.5007 67.7958C22.1345 67.003 20.9999 65.8659 20.2102 64.4979C19.4205 63.1299 19.0032 61.5787 19 59.9991Z" fill="#256CCB"/>
<path d="M39 60C38.9962 58.0697 38.4865 56.1742 37.5215 54.5024C36.5566 52.8306 35.1703 51.441 33.5008 50.4722L32.4993 52.2034C34.1837 53.1758 35.5079 54.6677 36.2734 56.4556C37.039 58.2436 37.2048 60.2314 36.7461 62.1215C36.2873 64.0116 35.2286 65.7022 33.7286 66.9403C32.2286 68.1783 30.3678 68.8972 28.425 68.9892L29.7072 67.7072L28.2929 66.2929L25.2929 69.2929C25.1053 69.4804 25 69.7348 25 70C25 70.2652 25.1053 70.5196 25.2929 70.7072L28.2929 73.7072L29.7072 72.2929L28.406 70.9917C31.2499 70.8835 33.9416 69.6785 35.9166 67.6293C37.8916 65.5802 38.9966 62.846 39 60Z" fill="#256CCB"/>
<path d="M28.7072 60.7072C28.8947 60.5196 29 60.2652 29 60V55H27V59.5858L24.2929 62.2928L25.7072 63.7072L28.7072 60.7072Z" fill="#256CCB"/>
</svg>
