<svg width="29" height="62" viewBox="0 0 29 62" fill="none" xmlns="http://www.w3.org/2000/svg">
<g id="Vector">
<path d="M14.0283 56.8758C10.2517 56.8758 7.11836 55.9901 4.62815 54.2187C2.15443 52.4293 0.678447 49.7904 0.200195 46.3019L4.99921 45.9766C5.52693 48.1817 6.58239 49.8356 8.16556 50.9381C9.74874 52.0407 11.6947 52.592 14.0035 52.592C15.3888 52.592 16.6834 52.3299 17.8873 51.8057C19.1076 51.2816 20.0889 50.5495 20.831 49.6096C21.5896 48.6697 21.9689 47.5581 21.9689 46.2748C21.9689 44.5577 21.4989 43.184 20.5589 42.1537C19.6354 41.1235 18.1594 40.3101 16.1309 39.7136L9.97138 37.9513C7.31625 37.2102 5.21359 36.0444 3.6634 34.4538C2.1132 32.8632 1.32986 30.7304 1.31337 28.0553C1.29688 25.7959 1.83285 23.8077 2.92128 22.0906C4.02621 20.3734 5.54342 19.0359 7.47292 18.0779C9.41891 17.12 11.6617 16.641 14.2014 16.641C16.6422 16.641 18.7448 17.1561 20.5094 18.1864C22.2905 19.1986 23.6675 20.5452 24.6405 22.2261C25.63 23.9071 26.1577 25.7417 26.2237 27.7299L21.5731 28.0011C21.2103 25.6694 20.427 23.9071 19.2231 22.7142C18.0357 21.5031 16.3618 20.8976 14.2014 20.8976C13.179 20.8976 12.1895 21.0422 11.233 21.3314C10.293 21.6025 9.44365 22.0183 8.68504 22.5786C7.94293 23.1389 7.34924 23.8348 6.90397 24.6662C6.4587 25.4977 6.23606 26.4647 6.23606 27.5673C6.23606 28.9771 6.68958 30.0978 7.59661 30.9292C8.50364 31.7426 10.1363 32.5469 12.4946 33.3422L18.4315 35.1859C21.4659 36.1077 23.6263 37.5446 24.9126 39.4967C26.2155 41.4307 26.8669 43.672 26.8669 46.2206C26.8669 48.2992 26.3309 50.1428 25.2589 51.7515C24.187 53.3421 22.678 54.5983 20.732 55.5201C18.8025 56.4239 16.568 56.8758 14.0283 56.8758ZM12.0988 18.3184H16.3288L16.3288 18.2677H12.0988L12.0988 18.3184ZM11.8019 55.005H16.032V62H11.8019V55.005Z" fill="#256CCB"/>
<path d="M14.2002 0L0.200195 14.7955L3.02819 17.7841L12.2002 8.091V18.3182H16.2002V8.091L25.3722 17.7841L28.2002 14.7955L14.2002 0Z" fill="#256CCB"/>
</g>
</svg>
