<svg width="375" height="184" viewBox="0 0 375 184" fill="none" xmlns="http://www.w3.org/2000/svg">
<g id="background-1">
<g id="Group 4">
<g id="Rectangle 18" filter="url(#filter0_f_57_1162)">
<rect x="26" y="20" width="323" height="144" rx="12" fill="#00C5FF" fill-opacity="0.2"/>
</g>
<g id="Rectangle 18_2" filter="url(#filter1_d_57_1162)">
<rect x="10" y="12" width="355" height="144" rx="12" fill="#00B9F0"/>
</g>
</g>
<path id="Intersect" fill-rule="evenodd" clip-rule="evenodd" d="M75.4651 12C91.4388 41.2125 111.636 70.039 135.057 88.5224C196.782 137.235 262.335 116.275 302.977 91.7383C328.138 76.5483 352.057 80.7538 364.999 84.994V31.2C364.999 24.4794 364.999 21.1191 363.692 18.5521C362.541 16.2942 360.705 14.4584 358.447 13.3079C355.88 12 352.52 12 345.799 12H75.4651Z" fill="url(#paint0_linear_57_1162)"/>
<path id="Intersect_2" fill-rule="evenodd" clip-rule="evenodd" d="M217.313 12C222.455 12.9018 227.295 14.6868 232.433 18.7105C235.738 21.2988 238.605 23.9248 241.34 26.4307C250.348 34.6832 257.934 41.6318 275.067 41.6318H337.309C354.241 41.6318 364.5 48.5717 365 61.5919V31.2C365 24.4794 365 21.1191 363.692 18.5521C362.542 16.2942 360.706 14.4584 358.448 13.3079C355.881 12 352.521 12 345.8 12H217.313Z" fill="url(#paint1_linear_57_1162)" fill-opacity="0.95"/>
<path id="&#228;&#188;&#154;&#229;&#145;&#152;&#229;&#159;&#186;&#230;&#156;&#172;&#228;&#191;&#161;&#230;&#129;&#175;" d="M43.0645 91.874C44.3861 93.0498 45.5254 94.1527 46.4824 95.1826L45.5938 95.9756C45.3021 95.6383 44.9648 95.2646 44.582 94.8545C42.3125 94.9912 39.9928 95.1462 37.623 95.3193C37.2402 95.3558 36.8529 95.4561 36.4609 95.6201L35.8457 94.4854C36.2923 94.3213 36.6706 94.1025 36.9805 93.8291C37.7734 93.0544 38.5391 92.1475 39.2773 91.1084H34.7246V90.0967H47.2754V91.1084H40.6582C39.7285 92.2842 38.8216 93.3278 37.9375 94.2393C39.9518 94.139 41.875 94.0433 43.707 93.9521C43.2878 93.5238 42.8275 93.0589 42.3262 92.5576L43.0645 91.874ZM41 83.6162C39.1771 85.7673 37.1309 87.499 34.8613 88.8115C34.6426 88.4834 34.3919 88.1507 34.1094 87.8135C36.7253 86.4736 38.8444 84.7054 40.4668 82.5088H41.9297L41.6699 82.8506C43.2467 84.9561 45.3294 86.501 47.918 87.4854C47.6445 87.8499 47.3893 88.2373 47.1523 88.6475C44.5091 87.3623 42.4583 85.6852 41 83.6162ZM37.1992 87.2803H44.7461V88.292H37.1992V87.2803ZM50.4062 82.9736H59.5938V87.2256H58.5V86.7197H51.5V87.2256H50.4062V82.9736ZM54.3711 89.3721H55.4785C55.4876 89.8643 55.474 90.3975 55.4375 90.9717C55.4102 91.3818 55.3555 91.7601 55.2734 92.1064C57.2422 92.8812 59.3932 93.8109 61.7266 94.8955L61.1113 95.9209C59.334 95.0003 57.2695 94.0433 54.918 93.0498C54.7539 93.3779 54.5443 93.665 54.2891 93.9111C53.2318 94.8955 51.4453 95.5882 48.9297 95.9893C48.7747 95.6064 48.5742 95.2601 48.3281 94.9502C50.8893 94.5583 52.5846 93.9521 53.4141 93.1318C53.9701 92.6214 54.2754 91.8695 54.3301 90.876C54.3665 90.3656 54.3802 89.8643 54.3711 89.3721ZM49.6543 88.0049H60.3594V92.9951H59.2656V88.9619H50.748V93.0771H49.6543V88.0049ZM58.5 85.7627V83.9307H51.5V85.7627H58.5ZM75.8223 92.4756C75.5215 92.8493 75.2754 93.1774 75.084 93.46C74.2454 93.0635 73.4753 92.5895 72.7734 92.0381V92.79H69.5059V94.2119H74.8516V95.1006H63.1348V94.2119H68.4805V92.79H65.1719V92.0449C64.4473 92.651 63.6908 93.1774 62.9023 93.624C62.7292 93.3779 62.4922 93.0908 62.1914 92.7627C63.5951 92.0791 64.8096 91.2132 65.835 90.165H62.3418V89.2764H65.0625V84.6963H62.7656V83.8076H65.0625V82.3311H66.0879V83.8076H71.9531V82.3311H72.9785V83.8076H75.2754V84.6963H72.9785V89.2764H75.6582V90.165H72.0625C73.0879 91.1859 74.3411 91.9561 75.8223 92.4756ZM68.4805 90.6025H69.5059V91.9287H72.6367C71.985 91.4046 71.3903 90.8167 70.8525 90.165H67.0859C66.5163 90.8122 65.9238 91.4001 65.3086 91.9287H68.4805V90.6025ZM66.0879 89.2764H71.9531V88.3057H66.0879V89.2764ZM66.0879 87.458H71.9531V86.501H66.0879V87.458ZM66.0879 85.6533H71.9531V84.6963H66.0879V85.6533ZM89.7402 92.2432C89.5033 92.4801 89.1934 92.7992 88.8105 93.2002C86.6048 91.5003 84.8457 89.3219 83.5332 86.665V92.0791H86.6641V93.0361H83.5332V95.8389H82.4668V93.0361H79.2266V92.0791H82.4668V86.665C81.3047 88.9801 79.5228 91.2132 77.1211 93.3643C76.7656 93.027 76.4648 92.7536 76.2188 92.5439C78.8118 90.4157 80.751 88.1644 82.0361 85.79H76.5195V84.7783H82.4668V82.3174H83.5332V84.7783H89.4805V85.79H83.9229C85.3721 88.5153 87.3112 90.6663 89.7402 92.2432ZM95.0312 90.8623H102.811V95.8662H101.758V95.0459H96.084V95.8662H95.0312V90.8623ZM90.1777 88.9619C91.5176 86.9749 92.5247 84.7783 93.1992 82.3721L94.2656 82.6729C93.8691 83.8988 93.4362 85.029 92.9668 86.0635V95.8662H91.9551V88.0664C91.5358 88.8001 91.0938 89.4723 90.6289 90.083C90.4831 89.7002 90.3327 89.3265 90.1777 88.9619ZM101.758 91.792H96.084V94.1162H101.758V91.792ZM94.1289 84.2178H98.5928C98.3193 83.7484 98.0345 83.2835 97.7383 82.8232L98.6543 82.3447C98.9824 82.8369 99.306 83.3564 99.625 83.9033L99.0303 84.2178H103.754V85.1748H94.1289V84.2178ZM94.8809 86.4463H102.947V87.376H94.8809V86.4463ZM94.8809 88.6475H102.947V89.5771H94.8809V88.6475ZM105.996 83.6982H109.339C109.535 83.2106 109.697 82.7412 109.824 82.29L110.891 82.5771C110.74 82.9645 110.583 83.3382 110.419 83.6982H115.867V91.1631H114.814V90.7393H107.049V91.1631H105.996V83.6982ZM107.432 91.6826H108.471V93.6924C108.471 94.2575 108.771 94.54 109.373 94.54H112.408C113.137 94.54 113.561 94.2894 113.68 93.7881C113.771 93.46 113.862 92.9632 113.953 92.2979C114.29 92.4346 114.646 92.5667 115.02 92.6943C114.91 93.3232 114.801 93.8291 114.691 94.2119C114.482 95.0778 113.803 95.5107 112.654 95.5107H109.209C108.024 95.5107 107.432 94.9456 107.432 93.8154V91.6826ZM107.049 87.7861H114.814V86.6377H107.049V87.7861ZM107.049 89.8096H114.814V88.6611H107.049V89.8096ZM114.814 84.6279H107.049V85.7627H114.814V84.6279ZM105.395 91.5459L106.393 91.8877C105.992 92.9814 105.572 93.9795 105.135 94.8818C104.843 94.7542 104.506 94.6221 104.123 94.4854C104.57 93.6924 104.993 92.7126 105.395 91.5459ZM115.197 91.9834L115.99 91.3682C116.637 92.07 117.298 92.8402 117.973 93.6787L117.098 94.3486C116.478 93.5101 115.844 92.7217 115.197 91.9834ZM109.824 91.5322L110.562 90.9033C111.118 91.4137 111.729 92.0244 112.395 92.7354L111.561 93.4463C110.886 92.6533 110.307 92.0153 109.824 91.5322Z" fill="white" fill-opacity="0.9"/>
<path id="&#228;&#188;&#154;&#229;&#145;&#152;&#230;&#157;&#131;&#231;&#155;&#138;&#229;&#141;&#161;" d="M35.1602 59.3721H54.8828V62.0791H49.5332C50.8939 63.7262 52.362 65.5811 53.9375 67.6436L51.3164 69.2334C51.0013 68.7751 50.6719 68.2952 50.3281 67.7939C47.6068 67.8942 44.1979 68.0661 40.1016 68.3096C39.4857 68.3525 38.7337 68.46 37.8457 68.6318L36.5566 66.0322C37.8743 65.0869 39.1777 63.7692 40.4668 62.0791H35.1602V59.3721ZM47.3633 47.7275L46.7617 48.458C48.6094 51.165 51.5885 53.471 55.6992 55.376C54.9401 56.307 54.2956 57.152 53.7656 57.9111C52.6914 57.3382 51.6888 56.7367 50.7578 56.1064V57.5674H39.2422V55.9775C38.3112 56.6077 37.3086 57.238 36.2344 57.8682C35.819 57.2809 35.1745 56.4359 34.3008 55.333C38.9987 52.8551 42.1211 50.32 43.668 47.7275H47.3633ZM45 50.8213C43.9831 52.1533 42.5508 53.514 40.7031 54.9033H49.125C47.5065 53.6429 46.1315 52.2822 45 50.8213ZM46.8906 63.1963L48.7383 62.0791H44.2051C43.4603 63.0244 42.515 64.1058 41.3691 65.3232C43.0306 65.3232 45.3581 65.2588 48.3516 65.1299C47.8932 64.514 47.4062 63.8695 46.8906 63.1963ZM75.0352 48.4365V55.3115H59.0723V48.4365H75.0352ZM71.9414 52.7549V50.9932H62.166V52.7549H71.9414ZM58.2344 64.1416V56.7939H75.9375V63.7979H72.9297V59.3721H61.2422V64.1416H58.2344ZM65.8398 60.2744H68.9336C68.8405 61.1553 68.6471 61.9717 68.3535 62.7236C71.5905 63.8838 74.5911 65.0439 77.3555 66.2041L75.7012 68.9541C73.2376 67.7223 70.3193 66.4154 66.9463 65.0332C65.1344 67.1029 62.1159 68.417 57.8906 68.9756C57.5182 68.1449 57.0312 67.1637 56.4297 66.0322C62.6029 65.5023 65.7396 63.583 65.8398 60.2744ZM78.2793 60.5107C79.3034 58.9352 80.1449 56.9014 80.8037 54.4092H78.4727V51.5518H80.9219V47.7061H83.7148V51.5518H85.9707V54.4092H83.7148V57.0088L84.3809 56.4072C85.3548 57.3096 86.3574 58.2835 87.3887 59.3291L85.3691 61.1553C84.8249 60.4606 84.2734 59.8018 83.7148 59.1787V68.8467H80.9219V61.1016C80.4277 62.2975 79.8763 63.3682 79.2676 64.3135C78.9525 63.0244 78.623 61.7568 78.2793 60.5107ZM89.4941 51.7021C90.0671 54.7243 91.0947 57.3418 92.5771 59.5547C94.1169 57.263 95.1159 54.5667 95.5742 51.4658H86.1211V48.7158H98.6035V51.4229C97.9876 55.5049 96.627 59.0176 94.5215 61.9609C95.9681 63.4648 97.7012 64.7145 99.7207 65.71C99.0475 66.6982 98.4173 67.7152 97.8301 68.7607C95.7891 67.5576 94.0059 66.1074 92.4805 64.4102C90.7546 66.1934 88.6849 67.7152 86.2715 68.9756C85.7129 67.9157 85.1257 66.9704 84.5098 66.1396C86.9232 65.0439 88.9499 63.6582 90.5898 61.9824C88.8568 59.3971 87.5892 56.3643 86.7871 52.8838L89.4941 51.7021ZM100.387 65.5811H102.793V59.9414C102.521 60.0632 102.249 60.1813 101.977 60.2959C101.533 59.5225 101.024 58.7275 100.451 57.9111C103.13 56.93 105.568 55.7627 107.767 54.4092H100.73V51.874H106.198C105.181 50.6566 104.383 49.7686 103.803 49.21L105.951 47.5771C106.854 48.4222 107.971 49.5609 109.303 50.9932L108.132 51.874H112.461C113.865 50.4059 115.096 48.9808 116.156 47.5986L118.691 49.2529C117.803 50.1911 116.93 51.0648 116.07 51.874H121.441V54.4092H114.33C117.008 55.5622 119.422 56.6722 121.57 57.7393L120.088 60.1885L119.379 59.8018V65.5811H121.635V68.1592H100.387V65.5811ZM112.268 56.2568L113.546 54.4092H108.25L109.926 56.2354C108.35 57.1663 106.8 58.0114 105.274 58.7705H117.435C115.881 57.9684 114.158 57.1305 112.268 56.2568ZM116.586 61.2412H114.738V65.5811H116.586V61.2412ZM110.162 65.5811H111.988V61.2412H110.162V65.5811ZM105.586 65.5811H107.412V61.2412H105.586V65.5811ZM122.688 55.4619H130.508V47.7705H133.73V50.3486H142.195V52.9697H133.73V55.4619H143.484V58.126H122.688V55.4619ZM130.508 58.7705H133.73V61.4561L135.234 59.5225C137.784 60.5824 140.326 61.7855 142.861 63.1318L141.229 65.9248C138.722 64.4209 136.223 63.1318 133.73 62.0576V68.9111H130.508V58.7705Z" fill="white"/>
</g>
<defs>
<filter id="filter0_f_57_1162" x="6" y="0" width="363" height="184" filterUnits="userSpaceOnUse" color-interpolation-filters="sRGB">
<feFlood flood-opacity="0" result="BackgroundImageFix"/>
<feBlend mode="normal" in="SourceGraphic" in2="BackgroundImageFix" result="shape"/>
<feGaussianBlur stdDeviation="10" result="effect1_foregroundBlur_57_1162"/>
</filter>
<filter id="filter1_d_57_1162" x="-6" y="0" width="387" height="176" filterUnits="userSpaceOnUse" color-interpolation-filters="sRGB">
<feFlood flood-opacity="0" result="BackgroundImageFix"/>
<feColorMatrix in="SourceAlpha" type="matrix" values="0 0 0 0 0 0 0 0 0 0 0 0 0 0 0 0 0 0 127 0" result="hardAlpha"/>
<feOffset dy="4"/>
<feGaussianBlur stdDeviation="8"/>
<feComposite in2="hardAlpha" operator="out"/>
<feColorMatrix type="matrix" values="0 0 0 0 0.202501 0 0 0 0 0.531754 0 0 0 0 0.629639 0 0 0 0.2 0"/>
<feBlend mode="normal" in2="BackgroundImageFix" result="effect1_dropShadow_57_1162"/>
<feBlend mode="normal" in="SourceGraphic" in2="effect1_dropShadow_57_1162" result="shape"/>
</filter>
<linearGradient id="paint0_linear_57_1162" x1="254.5" y1="27" x2="146" y2="95.5" gradientUnits="userSpaceOnUse">
<stop offset="0.106557" stop-color="#79D5FB"/>
<stop offset="1" stop-color="#79D5FB" stop-opacity="0.8"/>
</linearGradient>
<linearGradient id="paint1_linear_57_1162" x1="250.5" y1="12" x2="352.224" y2="-10.1642" gradientUnits="userSpaceOnUse">
<stop stop-color="#FFEFB2"/>
<stop offset="1" stop-color="#FFD679"/>
</linearGradient>
</defs>
</svg>
