<svg width="375" height="184" viewBox="0 0 375 184" fill="none" xmlns="http://www.w3.org/2000/svg">
<g id="background-2">
<g id="Group 4">
<g id="Rectangle 18" filter="url(#filter0_f_75_737)">
<rect x="26" y="20" width="323" height="144" rx="12" fill="#00C5FF" fill-opacity="0.2"/>
</g>
<g id="Rectangle 18_2" filter="url(#filter1_d_75_737)">
<rect x="10" y="12" width="355" height="144" rx="12" fill="#00B9F0"/>
</g>
</g>
<path id="Intersect" fill-rule="evenodd" clip-rule="evenodd" d="M75.4648 12C91.4385 41.2125 111.635 70.039 135.056 88.5224C196.782 137.235 262.334 116.275 302.977 91.7383C328.138 76.5483 352.057 80.7538 364.999 84.994V31.2C364.999 24.4794 364.999 21.1191 363.691 18.5521C362.541 16.2942 360.705 14.4584 358.447 13.3079C355.88 12 352.52 12 345.799 12H75.4648Z" fill="url(#paint0_linear_75_737)"/>
<path id="Intersect_2" fill-rule="evenodd" clip-rule="evenodd" d="M217.313 12C222.455 12.9018 227.295 14.6868 232.433 18.7105C235.738 21.2988 238.605 23.9248 241.34 26.4307C250.348 34.6832 257.934 41.6318 275.067 41.6318H337.309C354.241 41.6318 364.5 48.5717 365 61.5919V31.2C365 24.4794 365 21.1191 363.692 18.5521C362.542 16.2942 360.706 14.4584 358.448 13.3079C355.881 12 352.521 12 345.8 12H217.313Z" fill="url(#paint1_linear_75_737)" fill-opacity="0.95"/>
<path id="&#228;&#184;&#147;&#229;&#177;&#158;&#230;&#156;&#141;&#229;&#138;&#161;&#231;&#153;&#187;&#232;&#174;&#176;" d="M37.5957 91.7236C38.8034 92.2614 40.1068 92.8607 41.5059 93.5215L44.5957 90.8486H36.9395V89.8369L37.6025 88.1416H34.3418V87.1025H38.0127L38.751 85.2295H35.1758V84.1904H39.1611L39.8789 82.3721H41.123L40.4053 84.1904H46.8789V85.2295H39.9951L39.2568 87.1025H47.7539V88.1416H38.8467L38.1836 89.8232H46.1543V90.8896L42.5176 94C43.1283 94.2917 43.7572 94.5947 44.4043 94.9092L43.7344 95.9482C41.4466 94.7451 39.209 93.6423 37.0215 92.6396L37.5957 91.7236ZM52.0879 88.0732H55.7656V87.2119C54.4531 87.2575 53.0039 87.3031 51.418 87.3486C51.3724 87.1025 51.3086 86.8291 51.2266 86.5283C55.5651 86.4281 58.7552 86.3187 60.7969 86.2002L61.0156 86.9932C59.8307 87.057 58.377 87.1208 56.6543 87.1846V88.0732H60.4004V90.835H59.498V90.5615H56.6543V91.4365H61.2617V94.4033C61.2617 95.333 60.8014 95.7979 59.8809 95.7979C59.4251 95.7979 58.8555 95.7887 58.1719 95.7705C58.1263 95.5153 58.0579 95.2008 57.9668 94.8271C58.6048 94.8818 59.1471 94.9092 59.5938 94.9092C60.0859 94.9092 60.332 94.6768 60.332 94.2119V92.1748H56.6543V93.3916C57.1829 93.3643 57.707 93.3324 58.2266 93.2959C58.1263 93.0863 58.0215 92.8766 57.9121 92.667L58.6504 92.3252C58.9785 92.9176 59.3066 93.5557 59.6348 94.2393L58.8281 94.6084C58.7461 94.417 58.6641 94.2301 58.582 94.0479C57.0508 94.1117 55.3372 94.2347 53.4414 94.417L53.2773 93.542C54.1159 93.5146 54.9453 93.4782 55.7656 93.4326V92.1748H52.375V95.8662H51.4453V91.4365H55.7656V90.5615H52.9902V90.835H52.0879V88.0732ZM50.7344 88.9072C50.7344 92.0062 50.0964 94.3441 48.8203 95.9209C48.6107 95.6019 48.3828 95.2965 48.1367 95.0049C49.2487 93.7288 49.8001 91.6325 49.791 88.7158V83.0146H61.043V85.9268H60.1133V85.6533H50.7344V88.9072ZM60.1133 84.8604V83.8076H50.7344V84.8604H60.1133ZM59.498 88.8115H56.6543V89.8232H59.498V88.8115ZM52.9902 89.8232H55.7656V88.8115H52.9902V89.8232ZM68.166 83.1924H74.9199C74.8743 83.9307 74.8379 84.514 74.8105 84.9424C74.7376 86.3551 74.0176 87.0479 72.6504 87.0205C72.2767 87.0114 71.6888 86.9932 70.8867 86.9658C70.832 86.6104 70.7728 86.2503 70.709 85.8857C71.3835 85.9678 71.9896 86.0179 72.5273 86.0361C73.3112 86.0635 73.735 85.6898 73.7988 84.915C73.8262 84.6781 73.849 84.4183 73.8672 84.1357H69.2051V88.0732H74.9746V88.8799C74.61 90.4795 73.9424 91.8717 72.9717 93.0566C73.7601 93.804 74.7376 94.3851 75.9043 94.7998C75.5944 95.1644 75.3301 95.4925 75.1113 95.7842C73.9902 95.2601 73.04 94.6084 72.2607 93.8291C71.5635 94.5173 70.7454 95.1234 69.8066 95.6475C69.6335 95.3467 69.4466 95.0459 69.2461 94.7451C70.1576 94.2803 70.9437 93.7243 71.6045 93.0771C70.7158 91.9378 70.1302 90.5661 69.8477 88.9619H69.2051V95.7568H68.166V83.1924ZM63.1758 83.1377H67.0312V94.2256C67.0312 95.137 66.6074 95.5928 65.7598 95.5928C65.2949 95.5928 64.862 95.5791 64.4609 95.5518C64.4245 95.2783 64.3698 94.9548 64.2969 94.5811C64.7617 94.654 65.1628 94.6904 65.5 94.6904C65.8737 94.6904 66.0605 94.5036 66.0605 94.1299V90.9854H64.1465C64.1738 93.0817 63.7956 94.6813 63.0117 95.7842C62.8112 95.5199 62.5605 95.2646 62.2598 95.0186C62.8704 94.0798 63.1758 92.749 63.1758 91.0264V83.1377ZM73.8945 88.9619H70.7842C71.0667 90.2744 71.5703 91.391 72.2949 92.3115C73.0469 91.359 73.5801 90.2425 73.8945 88.9619ZM64.1465 90.1377H66.0605V87.499H64.1465V90.1377ZM66.0605 84.0264H64.1465V86.6514H66.0605V84.0264ZM80.1562 82.208L81.1816 82.6455C80.9766 82.9827 80.7624 83.3109 80.5391 83.6299H87.9355V84.5459C87.0879 85.5758 85.9281 86.4759 84.4561 87.2461C85.9873 87.8021 87.8125 88.1462 89.9316 88.2783C89.64 88.6885 89.3848 89.0713 89.166 89.4268C86.7917 89.1123 84.8001 88.5814 83.1914 87.834C81.3822 88.6042 79.1947 89.2126 76.6289 89.6592C76.474 89.3766 76.2871 89.0576 76.0684 88.7021C78.3516 88.3512 80.334 87.8545 82.0156 87.2119C80.9766 86.5785 80.1449 85.8288 79.5205 84.9629C78.8141 85.8014 78.0326 86.5785 77.1758 87.2939C76.9023 87.0023 76.6517 86.7562 76.4238 86.5557C78.1009 85.2249 79.3451 83.7757 80.1562 82.208ZM77.2852 90.2197H81.2637C81.3275 89.7777 81.3822 89.2855 81.4277 88.7432H82.5352C82.4759 89.2855 82.4144 89.7777 82.3506 90.2197H87.8672C87.776 91.8512 87.6895 92.9951 87.6074 93.6514C87.4616 94.9365 86.696 95.5837 85.3105 95.5928C84.7728 95.6019 83.9661 95.5837 82.8906 95.5381C82.8359 95.2008 82.7676 94.8226 82.6855 94.4033C83.7337 94.4945 84.5996 94.5446 85.2832 94.5537C86.0579 94.5355 86.4863 94.1436 86.5684 93.3779C86.6504 92.6943 86.7096 91.9652 86.7461 91.1904H82.1865C81.7035 93.3825 80.0059 94.973 77.0938 95.9619C76.8841 95.6611 76.6608 95.3558 76.4238 95.0459C79.0397 94.1982 80.5892 92.9131 81.0723 91.1904H77.2852V90.2197ZM86.4727 84.5322H80.3682C81.1019 85.4118 82.0452 86.1364 83.1982 86.7061C84.5153 86.0908 85.6068 85.3662 86.4727 84.5322ZM92.4473 88.6748H101.457V92.8857H100.418V92.3936H93.4863V92.8857H92.4473V88.6748ZM90.3281 94.4854H94.9082C94.5801 94.1663 94.1016 93.7243 93.4727 93.1592L94.1289 92.5029C94.6849 92.9587 95.2454 93.4463 95.8105 93.9658L95.25 94.4854H98.5312L98.0664 94.0205C98.6497 93.4919 99.1693 92.9723 99.625 92.4619L100.459 93.1455C100.031 93.5739 99.5521 94.0205 99.0234 94.4854H103.699V95.415H90.3281V94.4854ZM98.0527 82.5225C98.2624 83.0876 98.4948 83.6071 98.75 84.0811C99.7526 83.5342 100.628 83.0055 101.375 82.4951L102.045 83.3564C101.188 83.8669 100.263 84.3864 99.2695 84.915C99.5156 85.2796 99.7845 85.6123 100.076 85.9131C101.033 85.3844 101.922 84.8467 102.742 84.2998L103.426 85.1748C102.669 85.6396 101.817 86.1273 100.869 86.6377C101.744 87.3213 102.765 87.777 103.932 88.0049C103.667 88.3695 103.417 88.7386 103.18 89.1123C100.281 88.1097 98.2533 86.0407 97.0957 82.9053L98.0527 82.5225ZM100.418 89.5771H93.4863V91.4912H100.418V89.5771ZM90.9297 84.1768V83.2471H96.3438V84.1904C95.1133 86.2868 93.2083 88.0505 90.6289 89.4814C90.4557 89.1715 90.2643 88.8525 90.0547 88.5244C91.0117 88.0322 91.7865 87.5583 92.3789 87.1025C91.8047 86.5101 91.2168 85.9268 90.6152 85.3525L91.2578 84.71C91.9414 85.3298 92.5703 85.9176 93.1445 86.4736C93.901 85.8083 94.5482 85.0426 95.0859 84.1768H90.9297ZM94.5938 86.583H99.2285V87.4854H94.5938V86.583ZM110.508 88.6064V93.2549C110.508 93.9385 110.836 94.2803 111.492 94.2803H114.979C115.808 94.2803 116.277 93.9749 116.387 93.3643C116.487 92.8721 116.583 92.1611 116.674 91.2314C117.066 91.3864 117.449 91.5186 117.822 91.6279C117.704 92.4756 117.572 93.2139 117.426 93.8428C117.225 94.8271 116.487 95.3193 115.211 95.3193H111.109C109.997 95.3193 109.441 94.736 109.441 93.5693V87.5947H115.758V84.0811H108.867V83.0693H116.824V89.2627H115.758V88.6064H110.508ZM108.826 92.4346C108.854 92.9085 108.885 93.3005 108.922 93.6104C107.737 94.4033 106.821 95.0596 106.174 95.5791L105.531 94.6631C105.841 94.4261 105.996 94.016 105.996 93.4326V88.0869H104.219V87.0752H107.062V93.6787C107.609 93.305 108.197 92.8903 108.826 92.4346ZM105.764 82.5771C106.757 83.598 107.477 84.3545 107.924 84.8467L106.967 85.6533C106.393 84.8968 105.714 84.113 104.93 83.3018L105.764 82.5771Z" fill="white" fill-opacity="0.9"/>
<path id="&#228;&#188;&#154;&#229;&#145;&#152;&#230;&#157;&#131;&#231;&#155;&#138;&#229;&#141;&#161;" d="M35.1602 59.3721H54.8828V62.0791H49.5332C50.8939 63.7262 52.362 65.5811 53.9375 67.6436L51.3164 69.2334C51.0013 68.7751 50.6719 68.2952 50.3281 67.7939C47.6068 67.8942 44.1979 68.0661 40.1016 68.3096C39.4857 68.3525 38.7337 68.46 37.8457 68.6318L36.5566 66.0322C37.8743 65.0869 39.1777 63.7692 40.4668 62.0791H35.1602V59.3721ZM47.3633 47.7275L46.7617 48.458C48.6094 51.165 51.5885 53.471 55.6992 55.376C54.9401 56.307 54.2956 57.152 53.7656 57.9111C52.6914 57.3382 51.6888 56.7367 50.7578 56.1064V57.5674H39.2422V55.9775C38.3112 56.6077 37.3086 57.238 36.2344 57.8682C35.819 57.2809 35.1745 56.4359 34.3008 55.333C38.9987 52.8551 42.1211 50.32 43.668 47.7275H47.3633ZM45 50.8213C43.9831 52.1533 42.5508 53.514 40.7031 54.9033H49.125C47.5065 53.6429 46.1315 52.2822 45 50.8213ZM46.8906 63.1963L48.7383 62.0791H44.2051C43.4603 63.0244 42.515 64.1058 41.3691 65.3232C43.0306 65.3232 45.3581 65.2588 48.3516 65.1299C47.8932 64.514 47.4062 63.8695 46.8906 63.1963ZM75.0352 48.4365V55.3115H59.0723V48.4365H75.0352ZM71.9414 52.7549V50.9932H62.166V52.7549H71.9414ZM58.2344 64.1416V56.7939H75.9375V63.7979H72.9297V59.3721H61.2422V64.1416H58.2344ZM65.8398 60.2744H68.9336C68.8405 61.1553 68.6471 61.9717 68.3535 62.7236C71.5905 63.8838 74.5911 65.0439 77.3555 66.2041L75.7012 68.9541C73.2376 67.7223 70.3193 66.4154 66.9463 65.0332C65.1344 67.1029 62.1159 68.417 57.8906 68.9756C57.5182 68.1449 57.0312 67.1637 56.4297 66.0322C62.6029 65.5023 65.7396 63.583 65.8398 60.2744ZM78.2793 60.5107C79.3034 58.9352 80.1449 56.9014 80.8037 54.4092H78.4727V51.5518H80.9219V47.7061H83.7148V51.5518H85.9707V54.4092H83.7148V57.0088L84.3809 56.4072C85.3548 57.3096 86.3574 58.2835 87.3887 59.3291L85.3691 61.1553C84.8249 60.4606 84.2734 59.8018 83.7148 59.1787V68.8467H80.9219V61.1016C80.4277 62.2975 79.8763 63.3682 79.2676 64.3135C78.9525 63.0244 78.623 61.7568 78.2793 60.5107ZM89.4941 51.7021C90.0671 54.7243 91.0947 57.3418 92.5771 59.5547C94.1169 57.263 95.1159 54.5667 95.5742 51.4658H86.1211V48.7158H98.6035V51.4229C97.9876 55.5049 96.627 59.0176 94.5215 61.9609C95.9681 63.4648 97.7012 64.7145 99.7207 65.71C99.0475 66.6982 98.4173 67.7152 97.8301 68.7607C95.7891 67.5576 94.0059 66.1074 92.4805 64.4102C90.7546 66.1934 88.6849 67.7152 86.2715 68.9756C85.7129 67.9157 85.1257 66.9704 84.5098 66.1396C86.9232 65.0439 88.9499 63.6582 90.5898 61.9824C88.8568 59.3971 87.5892 56.3643 86.7871 52.8838L89.4941 51.7021ZM100.387 65.5811H102.793V59.9414C102.521 60.0632 102.249 60.1813 101.977 60.2959C101.533 59.5225 101.024 58.7275 100.451 57.9111C103.13 56.93 105.568 55.7627 107.767 54.4092H100.73V51.874H106.198C105.181 50.6566 104.383 49.7686 103.803 49.21L105.951 47.5771C106.854 48.4222 107.971 49.5609 109.303 50.9932L108.132 51.874H112.461C113.865 50.4059 115.096 48.9808 116.156 47.5986L118.691 49.2529C117.803 50.1911 116.93 51.0648 116.07 51.874H121.441V54.4092H114.33C117.008 55.5622 119.422 56.6722 121.57 57.7393L120.088 60.1885L119.379 59.8018V65.5811H121.635V68.1592H100.387V65.5811ZM112.268 56.2568L113.546 54.4092H108.25L109.926 56.2354C108.35 57.1663 106.8 58.0114 105.274 58.7705H117.435C115.881 57.9684 114.158 57.1305 112.268 56.2568ZM116.586 61.2412H114.738V65.5811H116.586V61.2412ZM110.162 65.5811H111.988V61.2412H110.162V65.5811ZM105.586 65.5811H107.412V61.2412H105.586V65.5811ZM122.688 55.4619H130.508V47.7705H133.73V50.3486H142.195V52.9697H133.73V55.4619H143.484V58.126H122.688V55.4619ZM130.508 58.7705H133.73V61.4561L135.234 59.5225C137.784 60.5824 140.326 61.7855 142.861 63.1318L141.229 65.9248C138.722 64.4209 136.223 63.1318 133.73 62.0576V68.9111H130.508V58.7705Z" fill="white"/>
</g>
<defs>
<filter id="filter0_f_75_737" x="6" y="0" width="363" height="184" filterUnits="userSpaceOnUse" color-interpolation-filters="sRGB">
<feFlood flood-opacity="0" result="BackgroundImageFix"/>
<feBlend mode="normal" in="SourceGraphic" in2="BackgroundImageFix" result="shape"/>
<feGaussianBlur stdDeviation="10" result="effect1_foregroundBlur_75_737"/>
</filter>
<filter id="filter1_d_75_737" x="-6" y="0" width="387" height="176" filterUnits="userSpaceOnUse" color-interpolation-filters="sRGB">
<feFlood flood-opacity="0" result="BackgroundImageFix"/>
<feColorMatrix in="SourceAlpha" type="matrix" values="0 0 0 0 0 0 0 0 0 0 0 0 0 0 0 0 0 0 127 0" result="hardAlpha"/>
<feOffset dy="4"/>
<feGaussianBlur stdDeviation="8"/>
<feComposite in2="hardAlpha" operator="out"/>
<feColorMatrix type="matrix" values="0 0 0 0 0.202501 0 0 0 0 0.531754 0 0 0 0 0.629639 0 0 0 0.2 0"/>
<feBlend mode="normal" in2="BackgroundImageFix" result="effect1_dropShadow_75_737"/>
<feBlend mode="normal" in="SourceGraphic" in2="effect1_dropShadow_75_737" result="shape"/>
</filter>
<linearGradient id="paint0_linear_75_737" x1="254.5" y1="27" x2="146" y2="95.5" gradientUnits="userSpaceOnUse">
<stop offset="0.106557" stop-color="#79D5FB"/>
<stop offset="1" stop-color="#79D5FB" stop-opacity="0.8"/>
</linearGradient>
<linearGradient id="paint1_linear_75_737" x1="250.5" y1="12" x2="352.224" y2="-10.1642" gradientUnits="userSpaceOnUse">
<stop stop-color="#FFEFB2"/>
<stop offset="1" stop-color="#FFD679"/>
</linearGradient>
</defs>
</svg>
