<svg width="20" height="20" viewBox="0 0 20 20" fill="none" xmlns="http://www.w3.org/2000/svg">
<g id="age">
<path id="Vector" d="M6.66675 5.00004V8.33254H9.16675V5.00004H10.8334V8.33254H13.3334V5.00004H15.0001V8.33254L15.8334 8.33337C17.1648 8.33337 18.2532 9.37412 18.3292 10.6865L18.3334 10.8334V11.6667C18.3334 12.5116 18.019 13.2831 17.5009 13.8706L17.5001 17.5C17.5001 17.9603 17.127 18.3334 16.6667 18.3334H3.33341C2.87318 18.3334 2.50008 17.9603 2.50008 17.5L2.49939 13.8668C2.06518 13.372 1.77337 12.7453 1.69002 12.0487L1.67134 11.8377L1.66675 11.6667V10.8334C1.66675 9.50196 2.70751 8.41362 4.01986 8.33762L4.16675 8.33337L5.00008 8.33254V5.00004H6.66675ZM7.50175 13.8675L7.45648 13.9201C6.92293 14.5011 6.18639 14.8915 5.36195 14.9806L5.17019 14.9958L5.00008 15C4.71278 15 4.43368 14.9636 4.16726 14.8949L4.16675 16.6667H15.8334L15.8341 14.8949C15.5675 14.9635 15.2881 15 15.0001 15C14.1149 15 13.3104 14.655 12.7135 14.0922L12.5888 13.9683L12.5001 13.87L12.4113 13.9683C11.884 14.5205 11.1687 14.892 10.3682 14.98L10.1664 14.996L10.0001 15C9.09508 15 8.27144 14.6385 7.66914 14.0465L7.54351 13.9161L7.50175 13.8675ZM15.8334 10H4.16675C3.73938 10 3.38716 10.3217 3.33902 10.7362L3.33341 10.8334L3.33306 11.6426L3.33626 11.7654C3.38711 12.643 4.1162 13.3334 5.00008 13.3334C5.83976 13.3334 6.53976 12.7103 6.65036 11.9163L6.66285 11.7895L6.6671 11.6426C6.69716 10.6021 8.18936 10.565 8.32386 11.5311L8.33307 11.6426L8.33625 11.7654C8.38708 12.643 9.11616 13.3334 10.0001 13.3334C10.8787 13.3334 11.5986 12.6535 11.6622 11.7911L11.6726 11.5557C11.7759 10.5926 13.2242 10.5926 13.3276 11.5557L13.338 11.7911C13.4016 12.6535 14.1214 13.3334 15.0001 13.3334C15.8787 13.3334 16.5986 12.6535 16.6622 11.7911L16.6667 11.6667V10.8334C16.6667 10.406 16.3451 10.0538 15.9306 10.0056L15.8334 10ZM5.83341 0.833374C6.93298 1.55937 7.2195 2.5734 7.04082 3.24023C6.86215 3.90707 6.17672 4.30279 5.50989 4.12412C4.84306 3.94544 4.44733 3.26002 4.62601 2.59318C4.87401 1.66763 5.83341 2.08337 5.83341 0.833374ZM10.0001 0.833374C11.0997 1.55937 11.3862 2.5734 11.2075 3.24023C11.0288 3.90707 10.3434 4.30279 9.67658 4.12412C9.00975 3.94544 8.614 3.26002 8.79266 2.59318C9.04066 1.66763 10.0001 2.08337 10.0001 0.833374ZM14.1667 0.833374C15.2663 1.55937 15.5528 2.5734 15.3742 3.24023C15.1955 3.90707 14.5101 4.30279 13.8432 4.12412C13.1764 3.94544 12.7807 3.26002 12.9593 2.59318C13.2073 1.66763 14.1667 2.08337 14.1667 0.833374Z" fill="#00B796"/>
</g>
</svg>
