<svg width="375" height="184" viewBox="0 0 375 184" fill="none" xmlns="http://www.w3.org/2000/svg">
<g id="backgroud-3">
<g id="Group 4">
<g id="Rectangle 18" filter="url(#filter0_f_62_738)">
<rect x="26" y="20" width="323" height="144" rx="12" fill="#00C5FF" fill-opacity="0.2"/>
</g>
<g id="Rectangle 18_2" filter="url(#filter1_d_62_738)">
<rect x="10" y="12" width="355" height="144" rx="12" fill="#00B9F0"/>
</g>
</g>
<path id="Intersect" fill-rule="evenodd" clip-rule="evenodd" d="M75.4648 12C91.4385 41.2125 111.635 70.039 135.056 88.5224C196.782 137.235 262.334 116.275 302.977 91.7383C328.138 76.5483 352.057 80.7538 364.999 84.994V31.2C364.999 24.4794 364.999 21.1191 363.691 18.5521C362.541 16.2942 360.705 14.4584 358.447 13.3079C355.88 12 352.52 12 345.799 12H75.4648Z" fill="url(#paint0_linear_62_738)"/>
<path id="Intersect_2" fill-rule="evenodd" clip-rule="evenodd" d="M217.313 12C222.455 12.9018 227.295 14.6868 232.433 18.7105C235.738 21.2988 238.605 23.9248 241.34 26.4307C250.348 34.6832 257.934 41.6318 275.067 41.6318H337.309C354.241 41.6318 364.5 48.5717 365 61.5919V31.2C365 24.4794 365 21.1191 363.692 18.5521C362.542 16.2942 360.706 14.4584 358.448 13.3079C355.881 12 352.521 12 345.8 12H217.313Z" fill="url(#paint1_linear_62_738)" fill-opacity="0.95"/>
<g id="Group 100">
<path id="&#228;&#188;&#154;&#229;&#145;&#152;&#228;&#184;&#147;&#229;&#177;&#158;&#230;&#157;&#131;&#231;&#155;&#138;" d="M43.0645 91.874C44.3861 93.0498 45.5254 94.1527 46.4824 95.1826L45.5938 95.9756C45.3021 95.6383 44.9648 95.2646 44.582 94.8545C42.3125 94.9912 39.9928 95.1462 37.623 95.3193C37.2402 95.3558 36.8529 95.4561 36.4609 95.6201L35.8457 94.4854C36.2923 94.3213 36.6706 94.1025 36.9805 93.8291C37.7734 93.0544 38.5391 92.1475 39.2773 91.1084H34.7246V90.0967H47.2754V91.1084H40.6582C39.7285 92.2842 38.8216 93.3278 37.9375 94.2393C39.9518 94.139 41.875 94.0433 43.707 93.9521C43.2878 93.5238 42.8275 93.0589 42.3262 92.5576L43.0645 91.874ZM41 83.6162C39.1771 85.7673 37.1309 87.499 34.8613 88.8115C34.6426 88.4834 34.3919 88.1507 34.1094 87.8135C36.7253 86.4736 38.8444 84.7054 40.4668 82.5088H41.9297L41.6699 82.8506C43.2467 84.9561 45.3294 86.501 47.918 87.4854C47.6445 87.8499 47.3893 88.2373 47.1523 88.6475C44.5091 87.3623 42.4583 85.6852 41 83.6162ZM37.1992 87.2803H44.7461V88.292H37.1992V87.2803ZM50.4062 82.9736H59.5938V87.2256H58.5V86.7197H51.5V87.2256H50.4062V82.9736ZM54.3711 89.3721H55.4785C55.4876 89.8643 55.474 90.3975 55.4375 90.9717C55.4102 91.3818 55.3555 91.7601 55.2734 92.1064C57.2422 92.8812 59.3932 93.8109 61.7266 94.8955L61.1113 95.9209C59.334 95.0003 57.2695 94.0433 54.918 93.0498C54.7539 93.3779 54.5443 93.665 54.2891 93.9111C53.2318 94.8955 51.4453 95.5882 48.9297 95.9893C48.7747 95.6064 48.5742 95.2601 48.3281 94.9502C50.8893 94.5583 52.5846 93.9521 53.4141 93.1318C53.9701 92.6214 54.2754 91.8695 54.3301 90.876C54.3665 90.3656 54.3802 89.8643 54.3711 89.3721ZM49.6543 88.0049H60.3594V92.9951H59.2656V88.9619H50.748V93.0771H49.6543V88.0049ZM58.5 85.7627V83.9307H51.5V85.7627H58.5ZM65.5957 91.7236C66.8034 92.2614 68.1068 92.8607 69.5059 93.5215L72.5957 90.8486H64.9395V89.8369L65.6025 88.1416H62.3418V87.1025H66.0127L66.751 85.2295H63.1758V84.1904H67.1611L67.8789 82.3721H69.123L68.4053 84.1904H74.8789V85.2295H67.9951L67.2568 87.1025H75.7539V88.1416H66.8467L66.1836 89.8232H74.1543V90.8896L70.5176 94C71.1283 94.2917 71.7572 94.5947 72.4043 94.9092L71.7344 95.9482C69.4466 94.7451 67.209 93.6423 65.0215 92.6396L65.5957 91.7236ZM80.0879 88.0732H83.7656V87.2119C82.4531 87.2575 81.0039 87.3031 79.418 87.3486C79.3724 87.1025 79.3086 86.8291 79.2266 86.5283C83.5651 86.4281 86.7552 86.3187 88.7969 86.2002L89.0156 86.9932C87.8307 87.057 86.377 87.1208 84.6543 87.1846V88.0732H88.4004V90.835H87.498V90.5615H84.6543V91.4365H89.2617V94.4033C89.2617 95.333 88.8014 95.7979 87.8809 95.7979C87.4251 95.7979 86.8555 95.7887 86.1719 95.7705C86.1263 95.5153 86.0579 95.2008 85.9668 94.8271C86.6048 94.8818 87.1471 94.9092 87.5938 94.9092C88.0859 94.9092 88.332 94.6768 88.332 94.2119V92.1748H84.6543V93.3916C85.1829 93.3643 85.707 93.3324 86.2266 93.2959C86.1263 93.0863 86.0215 92.8766 85.9121 92.667L86.6504 92.3252C86.9785 92.9176 87.3066 93.5557 87.6348 94.2393L86.8281 94.6084C86.7461 94.417 86.6641 94.2301 86.582 94.0479C85.0508 94.1117 83.3372 94.2347 81.4414 94.417L81.2773 93.542C82.1159 93.5146 82.9453 93.4782 83.7656 93.4326V92.1748H80.375V95.8662H79.4453V91.4365H83.7656V90.5615H80.9902V90.835H80.0879V88.0732ZM78.7344 88.9072C78.7344 92.0062 78.0964 94.3441 76.8203 95.9209C76.6107 95.6019 76.3828 95.2965 76.1367 95.0049C77.2487 93.7288 77.8001 91.6325 77.791 88.7158V83.0146H89.043V85.9268H88.1133V85.6533H78.7344V88.9072ZM88.1133 84.8604V83.8076H78.7344V84.8604H88.1133ZM87.498 88.8115H84.6543V89.8232H87.498V88.8115ZM80.9902 89.8232H83.7656V88.8115H80.9902V89.8232ZM95.0996 84.3408V83.3154H102.865V84.3135C102.437 87.4854 101.471 90.042 99.9668 91.9834C100.951 92.9769 102.255 93.7972 103.877 94.4443C103.485 94.8727 103.18 95.251 102.961 95.5791C101.393 94.7679 100.145 93.8656 99.2148 92.8721C98.1758 93.9567 96.7266 94.9684 94.8672 95.9072C94.6667 95.5791 94.4115 95.2327 94.1016 94.8682C96.0247 93.9658 97.4922 93.0088 98.5039 91.9971C97.1276 90.2653 96.2754 87.7132 95.9473 84.3408H95.0996ZM90.1367 91.0537C91.0664 89.6318 91.7637 88.0413 92.2285 86.2822H90.2734V85.3252H92.4062V82.4268H93.4453V85.3252H95.373V86.2822H93.4453V88.0869L94.0332 87.54C94.8535 88.3148 95.5143 89.0029 96.0156 89.6045L95.1953 90.3701C94.5846 89.5954 94.0013 88.9163 93.4453 88.333V95.8662H92.4062V88.374C91.9141 89.9053 91.3125 91.1995 90.6016 92.2568C90.474 91.8649 90.319 91.4639 90.1367 91.0537ZM101.703 84.3408H97.041C97.3145 87.2848 98.0482 89.5498 99.2422 91.1357C100.5 89.4495 101.32 87.1846 101.703 84.3408ZM104.246 94.2256H106.229V89.6318H115.826V94.2256H117.713V95.1826H104.246V94.2256ZM104.574 84.9971H112.032C112.839 84.2178 113.62 83.3291 114.377 82.3311L115.375 82.96C114.755 83.68 114.122 84.359 113.475 84.9971H117.508V85.9541H104.574V84.9971ZM114.842 90.5615H112.928V94.2256H114.842V90.5615ZM107.213 94.2256H109.113V90.5615H107.213V94.2256ZM110.07 94.2256H111.971V90.5615H110.07V94.2256ZM109.113 86.3779L109.783 87.2666C108.361 88.1325 106.766 89.012 104.998 89.9053C104.816 89.5498 104.629 89.2308 104.438 88.9482C106.142 88.1279 107.701 87.2712 109.113 86.3779ZM112.299 87.2393L112.859 86.4053C114.682 87.262 116.259 88.055 117.59 88.7842L116.988 89.7959C115.193 88.7568 113.63 87.9046 112.299 87.2393ZM106.707 83.0283L107.418 82.3174C108.202 82.8825 108.908 83.4339 109.537 83.9717L108.758 84.792C108.165 84.2269 107.482 83.639 106.707 83.0283Z" fill="white" fill-opacity="0.9"/>
<path id="&#228;&#188;&#154;&#229;&#145;&#152;&#230;&#157;&#131;&#231;&#155;&#138;&#229;&#141;&#161;" d="M35.1602 59.3721H54.8828V62.0791H49.5332C50.8939 63.7262 52.362 65.5811 53.9375 67.6436L51.3164 69.2334C51.0013 68.7751 50.6719 68.2952 50.3281 67.7939C47.6068 67.8942 44.1979 68.0661 40.1016 68.3096C39.4857 68.3525 38.7337 68.46 37.8457 68.6318L36.5566 66.0322C37.8743 65.0869 39.1777 63.7692 40.4668 62.0791H35.1602V59.3721ZM47.3633 47.7275L46.7617 48.458C48.6094 51.165 51.5885 53.471 55.6992 55.376C54.9401 56.307 54.2956 57.152 53.7656 57.9111C52.6914 57.3382 51.6888 56.7367 50.7578 56.1064V57.5674H39.2422V55.9775C38.3112 56.6077 37.3086 57.238 36.2344 57.8682C35.819 57.2809 35.1745 56.4359 34.3008 55.333C38.9987 52.8551 42.1211 50.32 43.668 47.7275H47.3633ZM45 50.8213C43.9831 52.1533 42.5508 53.514 40.7031 54.9033H49.125C47.5065 53.6429 46.1315 52.2822 45 50.8213ZM46.8906 63.1963L48.7383 62.0791H44.2051C43.4603 63.0244 42.515 64.1058 41.3691 65.3232C43.0306 65.3232 45.3581 65.2588 48.3516 65.1299C47.8932 64.514 47.4062 63.8695 46.8906 63.1963ZM75.0352 48.4365V55.3115H59.0723V48.4365H75.0352ZM71.9414 52.7549V50.9932H62.166V52.7549H71.9414ZM58.2344 64.1416V56.7939H75.9375V63.7979H72.9297V59.3721H61.2422V64.1416H58.2344ZM65.8398 60.2744H68.9336C68.8405 61.1553 68.6471 61.9717 68.3535 62.7236C71.5905 63.8838 74.5911 65.0439 77.3555 66.2041L75.7012 68.9541C73.2376 67.7223 70.3193 66.4154 66.9463 65.0332C65.1344 67.1029 62.1159 68.417 57.8906 68.9756C57.5182 68.1449 57.0312 67.1637 56.4297 66.0322C62.6029 65.5023 65.7396 63.583 65.8398 60.2744ZM78.2793 60.5107C79.3034 58.9352 80.1449 56.9014 80.8037 54.4092H78.4727V51.5518H80.9219V47.7061H83.7148V51.5518H85.9707V54.4092H83.7148V57.0088L84.3809 56.4072C85.3548 57.3096 86.3574 58.2835 87.3887 59.3291L85.3691 61.1553C84.8249 60.4606 84.2734 59.8018 83.7148 59.1787V68.8467H80.9219V61.1016C80.4277 62.2975 79.8763 63.3682 79.2676 64.3135C78.9525 63.0244 78.623 61.7568 78.2793 60.5107ZM89.4941 51.7021C90.0671 54.7243 91.0947 57.3418 92.5771 59.5547C94.1169 57.263 95.1159 54.5667 95.5742 51.4658H86.1211V48.7158H98.6035V51.4229C97.9876 55.5049 96.627 59.0176 94.5215 61.9609C95.9681 63.4648 97.7012 64.7145 99.7207 65.71C99.0475 66.6982 98.4173 67.7152 97.8301 68.7607C95.7891 67.5576 94.0059 66.1074 92.4805 64.4102C90.7546 66.1934 88.6849 67.7152 86.2715 68.9756C85.7129 67.9157 85.1257 66.9704 84.5098 66.1396C86.9232 65.0439 88.9499 63.6582 90.5898 61.9824C88.8568 59.3971 87.5892 56.3643 86.7871 52.8838L89.4941 51.7021ZM100.387 65.5811H102.793V59.9414C102.521 60.0632 102.249 60.1813 101.977 60.2959C101.533 59.5225 101.024 58.7275 100.451 57.9111C103.13 56.93 105.568 55.7627 107.767 54.4092H100.73V51.874H106.198C105.181 50.6566 104.383 49.7686 103.803 49.21L105.951 47.5771C106.854 48.4222 107.971 49.5609 109.303 50.9932L108.132 51.874H112.461C113.865 50.4059 115.096 48.9808 116.156 47.5986L118.691 49.2529C117.803 50.1911 116.93 51.0648 116.07 51.874H121.441V54.4092H114.33C117.008 55.5622 119.422 56.6722 121.57 57.7393L120.088 60.1885L119.379 59.8018V65.5811H121.635V68.1592H100.387V65.5811ZM112.268 56.2568L113.546 54.4092H108.25L109.926 56.2354C108.35 57.1663 106.8 58.0114 105.274 58.7705H117.435C115.881 57.9684 114.158 57.1305 112.268 56.2568ZM116.586 61.2412H114.738V65.5811H116.586V61.2412ZM110.162 65.5811H111.988V61.2412H110.162V65.5811ZM105.586 65.5811H107.412V61.2412H105.586V65.5811ZM122.688 55.4619H130.508V47.7705H133.73V50.3486H142.195V52.9697H133.73V55.4619H143.484V58.126H122.688V55.4619ZM130.508 58.7705H133.73V61.4561L135.234 59.5225C137.784 60.5824 140.326 61.7855 142.861 63.1318L141.229 65.9248C138.722 64.4209 136.223 63.1318 133.73 62.0576V68.9111H130.508V58.7705Z" fill="white"/>
</g>
</g>
<defs>
<filter id="filter0_f_62_738" x="6" y="0" width="363" height="184" filterUnits="userSpaceOnUse" color-interpolation-filters="sRGB">
<feFlood flood-opacity="0" result="BackgroundImageFix"/>
<feBlend mode="normal" in="SourceGraphic" in2="BackgroundImageFix" result="shape"/>
<feGaussianBlur stdDeviation="10" result="effect1_foregroundBlur_62_738"/>
</filter>
<filter id="filter1_d_62_738" x="-6" y="0" width="387" height="176" filterUnits="userSpaceOnUse" color-interpolation-filters="sRGB">
<feFlood flood-opacity="0" result="BackgroundImageFix"/>
<feColorMatrix in="SourceAlpha" type="matrix" values="0 0 0 0 0 0 0 0 0 0 0 0 0 0 0 0 0 0 127 0" result="hardAlpha"/>
<feOffset dy="4"/>
<feGaussianBlur stdDeviation="8"/>
<feComposite in2="hardAlpha" operator="out"/>
<feColorMatrix type="matrix" values="0 0 0 0 0.202501 0 0 0 0 0.531754 0 0 0 0 0.629639 0 0 0 0.2 0"/>
<feBlend mode="normal" in2="BackgroundImageFix" result="effect1_dropShadow_62_738"/>
<feBlend mode="normal" in="SourceGraphic" in2="effect1_dropShadow_62_738" result="shape"/>
</filter>
<linearGradient id="paint0_linear_62_738" x1="254.5" y1="27" x2="146" y2="95.5" gradientUnits="userSpaceOnUse">
<stop offset="0.106557" stop-color="#79D5FB"/>
<stop offset="1" stop-color="#79D5FB" stop-opacity="0.8"/>
</linearGradient>
<linearGradient id="paint1_linear_62_738" x1="250.5" y1="12" x2="352.224" y2="-10.1642" gradientUnits="userSpaceOnUse">
<stop stop-color="#FFEFB2"/>
<stop offset="1" stop-color="#FFD679"/>
</linearGradient>
</defs>
</svg>
