<svg width="20" height="20" viewBox="0 0 20 20" fill="none" xmlns="http://www.w3.org/2000/svg">
<g id="gender">
<path id="Vector" d="M5.00015 4.92851L3.0894 6.83926L1.91089 5.66074L5.83348 1.73816L9.75608 5.66074L8.57758 6.83926L6.66681 4.92851L6.66681 9.16664H5.00015V4.92851ZM14.1668 7.91667C15.3174 7.91667 16.2502 6.98393 16.2502 5.83333C16.2502 4.68274 15.3174 3.75 14.1668 3.75C13.0162 3.75 12.0835 4.68274 12.0835 5.83333C12.0835 6.98393 13.0162 7.91667 14.1668 7.91667ZM14.1668 9.58331C12.0957 9.58331 10.4168 7.9044 10.4168 5.83333C10.4168 3.76227 12.0957 2.08333 14.1668 2.08333C16.2379 2.08333 17.9168 3.76227 17.9168 5.83333C17.9168 7.9044 16.2379 9.58331 14.1668 9.58331ZM4.16681 15.8333H7.50014L7.50015 12.5H4.16681V15.8333ZM8.3335 10.8333C8.79375 10.8333 9.16683 11.2064 9.16683 11.6666V16.6666C9.16683 17.1269 8.79375 17.5 8.3335 17.5H3.33347C2.87324 17.5 2.50014 17.1269 2.50015 16.6666V11.6666C2.50015 11.2064 2.87324 10.8333 3.33348 10.8333H8.3335Z" fill="#FFC825"/>
<g id="Group 102">
<path id="Rectangle 45" d="M11.7 12H16.7V13.5H11.7V12Z" fill="#FFC825"/>
<path id="Rectangle 46" d="M13.45 17.5L13.45 10.75L14.95 10.75L14.95 17.5L13.45 17.5Z" fill="#FFC825"/>
</g>
</g>
</svg>
