<svg width="20" height="20" viewBox="0 0 20 20" fill="none" xmlns="http://www.w3.org/2000/svg">
<g id="name">
<path id="Vector" d="M2.49992 5.00004H17.4999V15H2.49992V5.00004ZM1.66659 3.33337C1.20635 3.33337 0.833252 3.70647 0.833252 4.16671V15.8334C0.833252 16.2936 1.20635 16.6667 1.66659 16.6667H18.3333C18.7935 16.6667 19.1666 16.2936 19.1666 15.8334V4.16671C19.1666 3.70647 18.7935 3.33337 18.3333 3.33337H1.66659ZM10.8333 6.66671H15.8333V8.33337H10.8333V6.66671ZM14.9999 10H10.8333V11.6667H14.9999V10ZM8.74992 8.33337C8.74992 9.48396 7.81718 10.4167 6.66659 10.4167C5.51599 10.4167 4.58325 9.48396 4.58325 8.33337C4.58325 7.18278 5.51599 6.25004 6.66659 6.25004C7.81718 6.25004 8.74992 7.18278 8.74992 8.33337ZM6.66659 11.25C5.05575 11.25 3.74992 12.5559 3.74992 14.1667H9.58325C9.58325 12.5559 8.27742 11.25 6.66659 11.25Z" fill="#79A8DC"/>
</g>
</svg>
