<svg viewBox="0 0 20 20">
<g id="search">
<path id="search_2" d="M11.8879 12.7733C10.8649 13.6017 9.56178 14.098 8.1428 14.098C4.85378 14.098 2.1875 11.4318 2.1875 8.14276C2.1875 4.85376 4.85378 2.1875 8.1428 2.1875C11.4318 2.1875 14.0981 4.85376 14.0981 8.14276C14.0981 9.56177 13.6018 10.8649 12.7733 11.8879L17.1875 16.3021L16.3021 17.1875L11.8879 12.7733ZM12.846 8.14276C12.846 5.54529 10.7403 3.4396 8.1428 3.4396C5.54529 3.4396 3.4396 5.54529 3.4396 8.14276C3.4396 10.7402 5.54529 12.8459 8.1428 12.8459C10.7403 12.8459 12.846 10.7402 12.846 8.14276Z" fill="currentColor" />
</g>
</svg>
